<svg width="56" height="56" fill="none" xmlns="http://www.w3.org/2000/svg"><path fill-rule="evenodd" clip-rule="evenodd" d="M19.79 22A1.79 1.79 0 0018 23.79v3.42c0 .989.801 1.79 1.79 1.79h3.42A1.79 1.79 0 0025 27.21v-3.42A1.79 1.79 0 0023.21 22h-3.42zm.21 5v-3h3v3h-3zM37.024 36c.04.001.078.005.117.01V36H49a3 3 0 013 3v10a3 3 0 01-3 3H7a3 3 0 01-3-3V39a3 3 0 013-3h11.989a1 1 0 011.01.981c.037 1.938 1.061 3.724 2.612 5.03 1.556 1.312 3.547 2.058 5.351 1.99h.088c1.781.09 3.762-.65 5.32-1.969 1.551-1.314 2.584-3.115 2.63-5.056A1 1 0 0137.024 36zm-2.363 7.559c1.647-1.394 2.918-3.331 3.254-5.559H49a1 1 0 011 1v10a1 1 0 01-1 1H7a1 1 0 01-1-1V39a1 1 0 011-1h11.081c.326 2.227 1.594 4.153 3.24 5.541 1.868 1.574 4.314 2.537 6.673 2.46 2.356.105 4.802-.863 6.667-2.442z" fill="#79B8FF"/><path d="M28.003 23.006a1 1 0 011-1h8a1 1 0 110 2h-8a1 1 0 01-1-1zM29.003 27.006a1 1 0 000 2h4a1 1 0 100-2h-4z" fill="#79B8FF"/><path d="M34 8c0-.48-.125-.689-.217-.781C33.693 7.128 33.486 7 33 7H10c-.486 0-.693.128-.783.219C9.125 7.31 9 7.52 9 8H7v25a1 1 0 102 0V8H7c0-.816.217-1.606.797-2.19C8.377 5.225 9.17 5 10 5h23c.83 0 1.622.225 2.203.81.58.584.797 1.374.797 2.19v2h10c.834 0 1.626.23 2.205.816C48.78 11.4 49 12.188 49 13v20a1 1 0 11-2 0V13c0-.47-.124-.683-.218-.778-.092-.094-.3-.222-.782-.222H23c-.481 0-.69.128-.782.222-.094.095-.218.307-.218.778v2h17.846c.868 0 1.688.223 2.294.794.615.58.86 1.376.86 2.206v15a1 1 0 11-2 0V18c0-.445-.124-.65-.232-.75-.116-.11-.374-.25-.922-.25H16.154c-.548 0-.806.14-.922.25-.108.1-.232.305-.232.75v15a1 1 0 11-2 0V18c0-.83.245-1.626.86-2.206.606-.571 1.426-.794 2.294-.794H20v-2c0-.812.219-1.6.795-2.184.58-.586 1.37-.816 2.205-.816h11V8z" fill="#2188FF"/></svg>