<svg width="56" height="56" fill="none" xmlns="http://www.w3.org/2000/svg"><path fill-rule="evenodd" clip-rule="evenodd" d="M4 7c0-.804.271-1.567.824-2.133C5.38 4.297 6.15 4 7 4h38c.85 0 1.62.296 2.176.867C47.73 5.433 48 6.196 48 7v25a1 1 0 11-2 0V11H6v30c0 .356.115.593.255.736.137.14.367.264.745.264h25a1 1 0 110 2H7c-.85 0-1.62-.296-2.176-.867C4.27 42.567 4 41.804 4 41V7zm2 0c0-.356.115-.593.255-.737C6.392 6.123 6.622 6 7 6h38c.378 0 .608.124.745.263.14.144.255.381.255.737v2H6V7z" fill="#79B8FF"/><path fill-rule="evenodd" clip-rule="evenodd" d="M8.548 16.033a3 3 0 013-3h10a3 3 0 013 3v6a3 3 0 01-3 3h-10a3 3 0 01-3-3v-6zm3-1a1 1 0 00-1 1v6a1 1 0 001 1h10a1 1 0 001-1v-6a1 1 0 00-1-1h-10zM11.548 27.033a3 3 0 00-3 3v6a3 3 0 003 3h10a3 3 0 003-3v-6a3 3 0 00-3-3h-10zm-1 3a1 1 0 011-1h10a1 1 0 011 1v6a1 1 0 01-1 1h-10a1 1 0 01-1-1v-6zM27.548 16.033a3 3 0 013-3h10a3 3 0 013 3v6a3 3 0 01-3 3h-10a3 3 0 01-3-3v-6zm3-1a1 1 0 00-1 1v6a1 1 0 001 1h10a1 1 0 001-1v-6a1 1 0 00-1-1h-10z" fill="#79B8FF"/><path d="M29.548 30.033a1 1 0 011-1h10a1 1 0 011 1v2.015a1 1 0 102 0v-2.015a3 3 0 00-3-3h-10a3 3 0 00-3 3v6a3 3 0 003 3h2.458a1 1 0 100-2h-2.458a1 1 0 01-1-1v-6z" fill="#79B8FF"/><path d="M20.924 17a1 1 0 11-2 0 1 1 0 012 0zM37.483 16.14a1 1 0 00-1.311.354l-1.366 2.175-.847-.47a1 1 0 00-1.279.265l-1.474 1.921a1 1 0 001.586 1.218l.95-1.237.92.511a1 1 0 001.333-.342l1.378-2.193 1.176.617a1 1 0 00.93-1.772l-1.996-1.046zM13.924 19a1 1 0 11-2 0 1 1 0 012 0zM16.924 22a1 1 0 100-2 1 1 0 000 2zM13.543 32.033a1 1 0 011 1v1.987a1 1 0 11-2 0v-1.987a1 1 0 011-1zM17.543 31.033a1 1 0 10-2 0v3.987a1 1 0 102 0v-3.987zM19.543 33.033a1 1 0 011 1v.987a1 1 0 11-2 0v-.987a1 1 0 011-1zM33.543 31.033a1 1 0 10-2 0v3.987a1 1 0 102 0v-3.987zM35.543 33.033a1 1 0 011 1v.987a1 1 0 11-2 0v-.987a1 1 0 011-1zM39.543 31.033a1 1 0 10-2 0v1.987a1 1 0 102 0v-1.987zM44.95 39.987a1 1 0 10-2 0v4a1 1 0 001 1h3a1 1 0 100-2h-2v-3z" fill="#2188FF"/><path fill-rule="evenodd" clip-rule="evenodd" d="M35 44a9 9 0 1118 0 9 9 0 01-18 0zm9-7a7 7 0 100 14 7 7 0 000-14z" fill="#2188FF"/></svg>