<svg width="56" height="56" fill="none" xmlns="http://www.w3.org/2000/svg"><path d="M7 22.95h1v-6a3 3 0 013-3h4a1 1 0 110 2h-4a1 1 0 00-1 1v1.03h5.034a1 1 0 010 2H10v2.97h5.034a1 1 0 110 2H7a1 1 0 00-1 1v13a1 1 0 001 1h8a1 1 0 110 2h-5v7a1 1 0 001 1h4a1 1 0 110 2h-4a3 3 0 01-3-3v-7H7a3 3 0 01-3-3v-13a3 3 0 013-3zM50 25.95a1 1 0 00-1-1h-8a1 1 0 010-2h5v-2.97h-4.966a1 1 0 110-2H46v-1.03a1 1 0 00-1-1h-4a1 1 0 010-2h4a3 3 0 013 3v1.77a1 1 0 010 .518v3.712h1a3 3 0 013 3v13a3 3 0 01-3 3h-1v7a3 3 0 01-3 3h-4a1 1 0 010-2h4a1 1 0 001-1v-7h-3a1 1 0 010-2h6a1 1 0 001-1v-13z" fill="#79B8FF"/><path fill-rule="evenodd" clip-rule="evenodd" d="M19 40a1 1 0 011 1v8.95h4v-1.987a1 1 0 011-1l6-.004a1 1 0 011 1v1.991h4v-4.001a1 1 0 112 0v5.001a1 1 0 01-1 1h-6a1 1 0 01-1-1v-1.99l-4 .002v1.988a1 1 0 01-1 1h-6a1 1 0 01-1-1V41a1 1 0 011-1z" fill="#2188FF"/><path d="M37.51 3.14A1 1 0 0138 4v19.022a1 1 0 01-2 0V5.689l-13.52 7.415a.937.937 0 01-.054.028C21.2 13.71 20 15.462 20 17.454v5.558a1 1 0 11-2 0v-5.558c0-2.664 1.553-5.162 3.544-6.117L36.52 3.123a1 1 0 01.99.017zM45.214 28.983a1 1 0 01.814.137l1.545 1.04a1 1 0 01-1.117 1.66l-.597-.402-1.957 3.95a1 1 0 01-1.337.453l-1.112-.546-.564 1.095a1 1 0 11-1.778-.917l1.014-1.967a1 1 0 011.33-.439l1.098.54 2.02-4.08a1 1 0 01.64-.524z" fill="#2188FF"/><path fill-rule="evenodd" clip-rule="evenodd" d="M30.868 32.738a4 4 0 10-5.742-.006c-1.13.68-1.95 1.763-2.118 3.092a1 1 0 001.984.252c.134-1.057 1.293-2.126 3.008-2.126 1.654 0 2.837 1.023 3.012 2.152a1 1 0 101.976-.305c-.204-1.324-1.016-2.388-2.12-3.059zM26 29.95a2 2 0 114 0 2 2 0 01-4 0z" fill="#2188FF"/><path fill-rule="evenodd" clip-rule="evenodd" d="M28 21.95c-5.523 0-10 4.477-10 10s4.477 10 10 10a9.962 9.962 0 006.57-2.461l5.908 5.549a1 1 0 001.37-1.458l-5.908-5.55A9.956 9.956 0 0038 31.95c0-5.523-4.477-10-10-10zm-8 10a8 8 0 1116 0 8 8 0 01-16 0z" fill="#2188FF"/><path d="M10.034 32.991a1 1 0 10-2 0v3.987a1 1 0 102 0v-3.987zM12.034 26.991a1 1 0 011 1v8.987a1 1 0 11-2 0v-8.987a1 1 0 011-1zM16.034 34.991a1 1 0 10-2 0v1.987a1 1 0 102 0v-1.987z" fill="#2188FF"/></svg>