<svg width="56" height="56" xmlns="http://www.w3.org/2000/svg"><g transform="translate(5 4)" stroke-width="2" fill="none" fill-rule="evenodd"><path d="M32 41.999V47h-6v-2.991l-6 .004m0 0V47h-6v-9.95m0-18.038v-5.557c0-2.336 1.383-4.466 3-5.228L32 0v19.022" stroke="#2088FF" stroke-linecap="round" stroke-linejoin="round"/><path d="M10 37H2a2 2 0 01-2-2V22a2 2 0 012-2h8.034M38 37h6a2 2 0 002-2V22a2 2 0 00-2-2h-8M10 47H6a2 2 0 01-2-2v-8M36 47h4a2 2 0 002-2v-8M10 11H6a2 2 0 00-2 2v7M36 11h4a2 2 0 012 2v7" stroke="#79B8FF" stroke-linecap="round" stroke-linejoin="round"/><path stroke="#2088FF" stroke-linecap="round" stroke-linejoin="round" d="M35 31.961l1.014-1.966 1.992.98L40.47 26l1.545 1.04"/><circle stroke="#2088FF" cx="23" cy="28" r="9"/><path stroke="#2088FF" stroke-linecap="round" d="M36.163 40.359l-6.53-6.133M4.034 33.028v-3.987M7.034 33.028v-8.987M10.034 33.028v-1.987"/><path stroke="#79B8FF" stroke-linecap="round" d="M4.034 15.03h6M36.034 15.03h6"/><path d="M27 32c-.267-1.727-1.973-3-4-3-2.08 0-3.787 1.318-4 3m4-9a3 3 0 100 6 3 3 0 000-6z" stroke="#2088FF" stroke-linecap="round" stroke-linejoin="round"/></g></svg>