<svg width="56" height="56" fill="none" xmlns="http://www.w3.org/2000/svg"><path fill-rule="evenodd" clip-rule="evenodd" d="M34 19.01a5.985 5.985 0 01-2.204 4.645c1.046.378 2.002.908 2.826 1.562a1 1 0 01-1.243 1.566c-1.325-1.05-3.132-1.73-5.141-1.78a6.042 6.042 0 01-.477 0c-2.025.049-3.818.721-5.135 1.777a1 1 0 01-1.252-1.56 9.85 9.85 0 012.825-1.57A6 6 0 0128 13.01a6 6 0 016 6zm-10 0a4 4 0 014-3.999 4 4 0 01.213 7.991 11.653 11.653 0 00-.427 0A4 4 0 0124 19.01zM28.01 30.004a7.5 7.5 0 00-4.06 13.808c-2.96 1.246-5.204 3.817-5.925 6.965a1 1 0 101.95.446c.798-3.486 3.979-6.139 7.84-6.221a7.84 7.84 0 00.38 0c3.855.087 7.03 2.733 7.83 6.222a1 1 0 001.95-.448c-.723-3.146-2.96-5.713-5.913-6.96a7.5 7.5 0 00-4.052-13.812zm.177 12.998a5.5 5.5 0 10-.36 0 11.172 11.172 0 01.36 0z" fill="#79B8FF"/><path d="M12 8a1 1 0 011 1v1h1a1 1 0 110 2h-1v1a1 1 0 11-2 0v-1h-1a1 1 0 110-2h1V9a1 1 0 011-1z" fill="#2188FF"/><path fill-rule="evenodd" clip-rule="evenodd" d="M5.249 5.315C5.924 4.622 6.916 4 8 4h8c1.084 0 2.076.622 2.752 1.315C19.422 6.005 20 6.992 20 8v13a1 1 0 01-1.707.707L14.586 18H8.989c-1.625-.018-2.914-.556-3.785-1.53C4.347 15.516 4 14.26 4 13V8c0-1.008.577-1.995 1.249-2.685zM6.682 6.71C6.21 7.195 6 7.71 6 8v5c0 .913.25 1.643.693 2.136.426.475 1.136.85 2.313.864H15a1 1 0 01.707.293L18 18.586V8c0-.291-.21-.805-.682-1.29C16.85 6.23 16.342 6 16 6H8c-.342 0-.85.229-1.318.71z" fill="#2188FF"/><path d="M47.708 9.708a1 1 0 10-1.413-1.416l-3.294 3.29-1.295-1.291a1 1 0 00-1.412 1.416l2.002 1.996a1 1 0 001.413-.001l4-3.994z" fill="#2188FF"/><path fill-rule="evenodd" clip-rule="evenodd" d="M40 4c-1.084 0-2.076.622-2.752 1.315C36.578 6.005 36 6.992 36 8v13a1 1 0 001.707.707L41.414 18h5.597c1.625-.018 2.913-.556 3.785-1.53C51.654 15.516 52 14.26 52 13V8c0-1.008-.577-1.995-1.248-2.685C50.075 4.622 49.084 4 48 4h-8zm-2 4c0-.291.21-.805.682-1.29C39.15 6.23 39.658 6 40 6h8c.342 0 .85.229 1.318.71.472.485.682.999.682 1.29v5c0 .913-.25 1.643-.693 2.136-.426.475-1.136.85-2.313.864H41a1 1 0 00-.707.293L38 18.586V8zM6 31a6 6 0 119.804 4.64c1.178.567 2.24 1.512 3.05 2.839a1 1 0 01-1.707 1.042C16.072 37.761 14.508 37 13 37c-3.167 0-5.624 2.222-6.009 5.13a1 1 0 01-1.982-.26 7.83 7.83 0 013.835-5.766A5.996 5.996 0 016 31zm6-4a4 4 0 100 8 4 4 0 000-8zM50 31a5.996 5.996 0 01-2.844 5.104 7.833 7.833 0 013.835 5.765 1 1 0 01-1.982.262C48.624 39.221 46.167 37 43 37c-1.51 0-3.072.761-4.147 2.521a1 1 0 11-1.706-1.042c.81-1.327 1.871-2.272 3.049-2.839A6 6 0 1150 31zm-6-4a4 4 0 100 8 4 4 0 000-8z" fill="#2188FF"/></svg>