<svg xmlns="http://www.w3.org/2000/svg" width="1280" height="1500" viewBox="0 0 1280 1500" fill="none" class="position-absolute z-n1 actions-hero"><g filter="url(#filter0_d)" class="actions-hero-strings" stroke="#fff" stroke-miterlimit="10"><path d="M972 1204c19.33 0 35-15.67 35-35s-15.67-35-35-35-35 15.67-35 35 15.67 35 35 35z" stroke-width="4" stroke-linecap="round"></path><path d="M972 1047v67" stroke-width="7" stroke-linecap="round" stroke-dasharray="0.5 20"></path><path d="M492 1023v80" stroke-width="4"></path><path d="M972 692c0-64.693-240-15.253-240-80" stroke-width="4"></path><path d="M732 612c0 64.693-240 15.253-240 80" stroke-width="4"></path><path d="M732 203v79" stroke-width="4"></path></g><g filter="url(#filter1_d)" class="actions-hero-card-4"><mask id="mask0" mask-type="alpha" maskUnits="userSpaceOnUse" x="281" y="1098" width="422" height="340"><path d="M703 1098H281v340h422v-340z" fill="#fff"></path><path fill-rule="evenodd" clip-rule="evenodd" d="M478 1113H288c-3.314 0-6 2.69-6 6v298c0 3.31 2.686 6 6 6h190c0 7.73 6.268 14 14 14s14-6.27 14-14h190c3.314 0 6-2.69 6-6v-298c0-3.31-2.686-6-6-6H506c0-7.73-6.268-14-14-14s-14 6.27-14 14zm14 6c3.866 0 7-3.13 7-7s-3.134-7-7-7-7 3.13-7 7 3.134 7 7 7zm7 304c0 3.87-3.134 7-7 7s-7-3.13-7-7 3.134-7 7-7 7 3.13 7 7z" fill="#000"></path></mask><g mask="url(#mask0)"><path fill-rule="evenodd" clip-rule="evenodd" d="M478 1113H288c-3.314 0-6 2.69-6 6v298c0 3.31 2.686 6 6 6h190c0 7.73 6.268 14 14 14s14-6.27 14-14h190c3.314 0 6-2.69 6-6v-298c0-3.31-2.686-6-6-6H506c0-7.73-6.268-14-14-14s-14 6.27-14 14zm14 6c3.866 0 7-3.13 7-7s-3.134-7-7-7-7 3.13-7 7 3.134 7 7 7zm7 304c0 3.87-3.134 7-7 7s-7-3.13-7-7 3.134-7 7-7 7 3.13 7 7z" fill="#fff"></path><path d="M478 1113v1h1v-1h-1zm0 310h1v-1h-1v1zm28 0v-1h-1v1h1zm0-310h-1v1h1v-1zm-218 1h190v-2H288v2zm-5 5c0-2.76 2.239-5 5-5v-2c-3.866 0-7 3.13-7 7h2zm0 298v-298h-2v298h2zm5 5c-2.761 0-5-2.24-5-5h-2c0 3.87 3.134 7 7 7v-2zm190 0H288v2h190v-2zm14 14c-7.18 0-13-5.82-13-13h-2c0 8.28 6.716 15 15 15v-2zm13-13c0 7.18-5.82 13-13 13v2c8.284 0 15-6.72 15-15h-2zm191-1H506v2h190v-2zm5-5c0 2.76-2.239 5-5 5v2c3.866 0 7-3.13 7-7h-2zm0-298v298h2v-298h-2zm-5-5c2.761 0 5 2.24 5 5h2c0-3.87-3.134-7-7-7v2zm-190 0h190v-2H506v2zm-14-14c7.18 0 13 5.82 13 13h2c0-8.28-6.716-15-15-15v2zm-13 13c0-7.18 5.82-13 13-13v-2c-8.284 0-15 6.72-15 15h2zm19-1c0 3.31-2.686 6-6 6v2a8 8 0 008-8h-2zm-6-6c3.314 0 6 2.69 6 6h2a8 8 0 00-8-8v2zm-6 6c0-3.31 2.686-6 6-6v-2a8 8 0 00-8 8h2zm6 6c-3.314 0-6-2.69-6-6h-2a8 8 0 008 8v-2zm0 313a8 8 0 008-8h-2c0 3.31-2.686 6-6 6v2zm-8-8a8 8 0 008 8v-2c-3.314 0-6-2.69-6-6h-2zm8-8a8 8 0 00-8 8h2c0-3.31 2.686-6 6-6v-2zm8 8a8 8 0 00-8-8v2c3.314 0 6 2.69 6 6h2z" fill="#1B1F23" fill-opacity=".05"></path><path d="M282 1373h420" stroke="#EAECEF" stroke-miterlimit="10"></path><path d="M282 1203h420" stroke="#EAECEF" stroke-miterlimit="10"></path><g filter="url(#filter2_i)"><path d="M648.999 1187c16.015 0 28.998-12.98 28.998-29s-12.983-29-28.998-29c-16.016 0-28.999 12.98-28.999 29s12.983 29 28.999 29z" fill="#fff"></path></g><path d="M677.497 1158c0 15.74-12.759 28.5-28.498 28.5-15.74 0-28.499-12.76-28.499-28.5s12.759-28.5 28.499-28.5c15.739 0 28.498 12.76 28.498 28.5z" stroke="#1B1F23" stroke-opacity=".02"></path></g><path d="M314 1149h193m-193 20h103" stroke="#E1E4E8" stroke-opacity=".7" stroke-width="5" stroke-linecap="round"></path></g><g opacity=".75" class="actions-hero-flourish"><g opacity=".85" filter="url(#filter3_d)"><path opacity=".85" d="M348 1351h-78c-2.76 0-5-2.24-5-5v-78c0-2.76 2.24-5 5-5h78c2.76 0 5 2.24 5 5v78c0 2.76-2.24 5-5 5z" fill="#fff"></path><path opacity=".85" d="M270 1351.5h78a5.5 5.5 0 005.5-5.5v-78a5.5 5.5 0 00-5.5-5.5h-78a5.5 5.5 0 00-5.5 5.5v78a5.5 5.5 0 005.5 5.5z" stroke="#1B1F23" stroke-opacity=".05"></path></g><path opacity=".75" d="M236.29 1292.63c.71 0 1.29-.58 1.29-1.29 0-.71-.58-1.29-1.29-1.29-.71 0-1.29.58-1.29 1.29 0 .71.58 1.29 1.29 1.29z" fill="#79B8FF"></path><path opacity=".75" d="M244.329 1292.3c.71 0 1.29-.58 1.29-1.29 0-.71-.58-1.29-1.29-1.29-.71 0-1.29.58-1.29 1.29 0 .71.58 1.29 1.29 1.29z" fill="#79B8FF"></path><path opacity=".75" d="M252.05 1292.3c.71 0 1.29-.58 1.29-1.29 0-.71-.58-1.29-1.29-1.29-.71 0-1.29.58-1.29 1.29 0 .71.58 1.29 1.29 1.29z" fill="#79B8FF"></path><path opacity=".75" d="M259.77 1292.3c.71 0 1.29-.58 1.29-1.29 0-.71-.58-1.29-1.29-1.29-.71 0-1.29.58-1.29 1.29 0 .71.58 1.29 1.29 1.29z" fill="#79B8FF"></path><path opacity=".75" d="M267.479 1292.3c.71 0 1.29-.58 1.29-1.29 0-.71-.58-1.29-1.29-1.29-.71 0-1.29.58-1.29 1.29a1.3 1.3 0 001.29 1.29z" fill="#79B8FF"></path><path opacity=".75" d="M273.91 1291.01c0 .71.58 1.29 1.29 1.29.71 0 1.29-.58 1.29-1.29 0-.71-.58-1.29-1.29-1.29-.71 0-1.29.58-1.29 1.29z" fill="#79B8FF"></path><path opacity=".75" d="M236.29 1300.37c.71 0 1.29-.58 1.29-1.29 0-.71-.58-1.29-1.29-1.29-.71 0-1.29.58-1.29 1.29 0 .71.58 1.29 1.29 1.29z" fill="#79B8FF"></path><path opacity=".75" d="M244.329 1300.04c.71 0 1.29-.58 1.29-1.29 0-.71-.58-1.29-1.29-1.29-.71 0-1.29.58-1.29 1.29 0 .71.58 1.29 1.29 1.29z" fill="#79B8FF"></path><path opacity=".75" d="M252.05 1300.04c.71 0 1.29-.58 1.29-1.29 0-.71-.58-1.29-1.29-1.29-.71 0-1.29.58-1.29 1.29 0 .71.58 1.29 1.29 1.29z" fill="#79B8FF"></path><path opacity=".75" d="M259.77 1300.04c.71 0 1.29-.58 1.29-1.29 0-.71-.58-1.29-1.29-1.29-.71 0-1.29.58-1.29 1.29 0 .71.58 1.29 1.29 1.29z" fill="#79B8FF"></path><path opacity=".75" d="M266.199 1298.75c0 .71.58 1.29 1.29 1.29.71 0 1.29-.58 1.29-1.29 0-.71-.58-1.29-1.29-1.29-.72 0-1.29.58-1.29 1.29z" fill="#79B8FF"></path><path opacity=".75" d="M273.91 1298.75c0 .71.58 1.29 1.29 1.29.71 0 1.29-.58 1.29-1.29 0-.71-.58-1.29-1.29-1.29-.71 0-1.29.58-1.29 1.29z" fill="#79B8FF"></path><path opacity=".75" d="M236.29 1308.11c.71 0 1.29-.58 1.29-1.29 0-.71-.58-1.29-1.29-1.29-.71 0-1.29.58-1.29 1.29 0 .71.58 1.29 1.29 1.29z" fill="#79B8FF"></path><path opacity=".75" d="M244.329 1307.78c.71 0 1.29-.58 1.29-1.29 0-.71-.58-1.29-1.29-1.29-.71 0-1.29.58-1.29 1.29 0 .71.58 1.29 1.29 1.29z" fill="#79B8FF"></path><path opacity=".75" d="M252.05 1307.78c.71 0 1.29-.58 1.29-1.29 0-.71-.58-1.29-1.29-1.29-.71 0-1.29.58-1.29 1.29 0 .71.58 1.29 1.29 1.29z" fill="#79B8FF"></path><path opacity=".75" d="M258.48 1306.49c0 .71.58 1.29 1.29 1.29.71 0 1.29-.58 1.29-1.29 0-.71-.58-1.29-1.29-1.29-.71 0-1.29.58-1.29 1.29z" fill="#79B8FF"></path><path opacity=".75" d="M266.199 1306.49c0 .71.58 1.29 1.29 1.29.71 0 1.29-.58 1.29-1.29 0-.71-.58-1.29-1.29-1.29-.72 0-1.29.58-1.29 1.29z" fill="#79B8FF"></path><path opacity=".75" d="M273.91 1306.49c0 .71.58 1.29 1.29 1.29.71 0 1.29-.58 1.29-1.29 0-.71-.58-1.29-1.29-1.29-.71 0-1.29.58-1.29 1.29z" fill="#79B8FF"></path><path opacity=".75" d="M236.29 1315.85c.71 0 1.29-.58 1.29-1.29 0-.71-.58-1.29-1.29-1.29-.71 0-1.29.58-1.29 1.29 0 .71.58 1.29 1.29 1.29z" fill="#79B8FF"></path><path opacity=".75" d="M244.329 1315.52c.71 0 1.29-.58 1.29-1.29 0-.71-.58-1.29-1.29-1.29-.71 0-1.29.58-1.29 1.29 0 .71.58 1.29 1.29 1.29z" fill="#79B8FF"></path><path opacity=".75" d="M250.76 1314.23c0 .71.58 1.29 1.29 1.29.71 0 1.29-.58 1.29-1.29 0-.71-.58-1.29-1.29-1.29-.71 0-1.29.58-1.29 1.29z" fill="#79B8FF"></path><path opacity=".75" d="M258.48 1314.23c0 .71.58 1.29 1.29 1.29.71 0 1.29-.58 1.29-1.29 0-.71-.58-1.29-1.29-1.29-.71 0-1.29.58-1.29 1.29z" fill="#79B8FF"></path><path opacity=".75" d="M266.199 1314.23c0 .71.58 1.29 1.29 1.29.71 0 1.29-.58 1.29-1.29 0-.71-.58-1.29-1.29-1.29-.72 0-1.29.58-1.29 1.29z" fill="#79B8FF"></path><path opacity=".75" d="M273.91 1314.23c0 .71.58 1.29 1.29 1.29.71 0 1.29-.58 1.29-1.29 0-.71-.58-1.29-1.29-1.29-.71 0-1.29.58-1.29 1.29z" fill="#79B8FF"></path><path opacity=".75" d="M237.57 1322.3c0-.71-.58-1.29-1.29-1.29a1.291 1.291 0 00.01 2.58c.71 0 1.28-.58 1.28-1.29z" fill="#79B8FF"></path><path opacity=".75" d="M243.039 1321.97c0 .71.58 1.29 1.29 1.29.71 0 1.29-.58 1.29-1.29 0-.71-.58-1.29-1.29-1.29-.71 0-1.29.58-1.29 1.29z" fill="#79B8FF"></path><path opacity=".75" d="M250.76 1321.97c0 .71.58 1.29 1.29 1.29.71 0 1.29-.58 1.29-1.29 0-.71-.58-1.29-1.29-1.29-.71 0-1.29.58-1.29 1.29z" fill="#79B8FF"></path><path opacity=".75" d="M258.48 1321.97c0 .71.58 1.29 1.29 1.29.71 0 1.29-.58 1.29-1.29 0-.71-.58-1.29-1.29-1.29-.71 0-1.29.58-1.29 1.29z" fill="#79B8FF"></path><path opacity=".75" d="M266.199 1321.97c0 .71.58 1.29 1.29 1.29.71 0 1.29-.58 1.29-1.29 0-.71-.58-1.29-1.29-1.29-.72 0-1.29.58-1.29 1.29z" fill="#79B8FF"></path><path opacity=".75" d="M273.91 1321.97c0 .71.58 1.29 1.29 1.29.71 0 1.29-.58 1.29-1.29 0-.71-.58-1.29-1.29-1.29-.71 0-1.29.58-1.29 1.29z" fill="#79B8FF"></path><path opacity=".75" d="M235.33 1329.71c0 .71.57 1.29 1.29 1.29.71 0 1.29-.58 1.29-1.29 0-.71-.58-1.29-1.29-1.29-.72 0-1.29.58-1.29 1.29z" fill="#79B8FF"></path><path opacity=".75" d="M244.329 1328.42c-.71 0-1.29.58-1.29 1.29 0 .71.58 1.29 1.29 1.29.71 0 1.29-.58 1.29-1.29 0-.71-.58-1.29-1.29-1.29z" fill="#79B8FF"></path><path opacity=".75" d="M252.05 1328.42c-.71 0-1.29.58-1.29 1.29 0 .71.58 1.29 1.29 1.29.71 0 1.29-.58 1.29-1.29 0-.71-.58-1.29-1.29-1.29z" fill="#79B8FF"></path><path opacity=".75" d="M259.77 1328.42c-.71 0-1.29.58-1.29 1.29 0 .71.58 1.29 1.29 1.29.71 0 1.29-.58 1.29-1.29a1.3 1.3 0 00-1.29-1.29z" fill="#79B8FF"></path><path opacity=".75" d="M267.479 1328.42c-.71 0-1.29.58-1.29 1.29 0 .71.58 1.29 1.29 1.29.71 0 1.29-.58 1.29-1.29 0-.71-.58-1.29-1.29-1.29z" fill="#79B8FF"></path><path opacity=".75" d="M275.2 1328.42c-.71 0-1.29.58-1.29 1.29 0 .71.58 1.29 1.29 1.29.71 0 1.29-.58 1.29-1.29 0-.71-.58-1.29-1.29-1.29z" fill="#79B8FF"></path><path opacity=".75" d="M236.29 1245.91c.71 0 1.29-.58 1.29-1.29 0-.71-.58-1.29-1.29-1.29-.71 0-1.29.58-1.29 1.29 0 .71.58 1.29 1.29 1.29z" fill="#79B8FF"></path><path opacity=".75" d="M244.001 1245.91c.712 0 1.29-.58 1.29-1.29a1.291 1.291 0 10-1.29 1.29z" fill="#79B8FF"></path><path opacity=".75" d="M251.72 1245.91c.712 0 1.29-.58 1.29-1.29a1.291 1.291 0 10-1.29 1.29z" fill="#79B8FF"></path><path opacity=".75" d="M259.44 1245.91c.71 0 1.29-.58 1.29-1.29 0-.71-.58-1.29-1.29-1.29-.71 0-1.29.58-1.29 1.29 0 .71.58 1.29 1.29 1.29z" fill="#79B8FF"></path><path opacity=".75" d="M268.769 1244.29c0-.71-.58-1.29-1.29-1.29-.71 0-1.29.58-1.29 1.29 0 .71.58 1.29 1.29 1.29.71 0 1.29-.58 1.29-1.29z" fill="#79B8FF"></path><path opacity=".75" d="M275.2 1245.58a1.291 1.291 0 000-2.58c-.712 0-1.29.58-1.29 1.29 0 .71.578 1.29 1.29 1.29z" fill="#79B8FF"></path><path opacity=".75" d="M236.29 1253.65c.71 0 1.29-.58 1.29-1.29 0-.71-.58-1.29-1.29-1.29-.71 0-1.29.58-1.29 1.29 0 .71.58 1.29 1.29 1.29z" fill="#79B8FF"></path><path opacity=".75" d="M243.039 1252.03c0 .71.58 1.29 1.29 1.29.71 0 1.29-.58 1.29-1.29 0-.71-.58-1.29-1.29-1.29-.71 0-1.29.58-1.29 1.29z" fill="#79B8FF"></path><path opacity=".75" d="M250.76 1252.03c0 .71.58 1.29 1.29 1.29.71 0 1.29-.58 1.29-1.29 0-.71-.58-1.29-1.29-1.29-.71 0-1.29.58-1.29 1.29z" fill="#79B8FF"></path><path opacity=".75" d="M258.48 1252.03c0 .71.58 1.29 1.29 1.29.71 0 1.29-.58 1.29-1.29 0-.71-.58-1.29-1.29-1.29-.71 0-1.29.58-1.29 1.29z" fill="#79B8FF"></path><path opacity=".75" d="M268.769 1252.03c0-.71-.58-1.29-1.29-1.29-.71 0-1.29.58-1.29 1.29 0 .71.58 1.29 1.29 1.29.71 0 1.29-.58 1.29-1.29z" fill="#79B8FF"></path><path opacity=".75" d="M276.49 1252.03c0-.71-.58-1.29-1.29-1.29-.71 0-1.29.58-1.29 1.29 0 .71.58 1.29 1.29 1.29.71 0 1.29-.58 1.29-1.29z" fill="#79B8FF"></path><path opacity=".75" d="M236.29 1261.39c.71 0 1.29-.58 1.29-1.29 0-.71-.58-1.29-1.29-1.29-.71 0-1.29.58-1.29 1.29 0 .71.58 1.29 1.29 1.29z" fill="#79B8FF"></path><path opacity=".75" d="M244.329 1261.06a1.291 1.291 0 000-2.58c-.712 0-1.29.58-1.29 1.29 0 .71.578 1.29 1.29 1.29z" fill="#79B8FF"></path><path opacity=".75" d="M252.05 1261.06c.712 0 1.29-.58 1.29-1.29a1.291 1.291 0 10-1.29 1.29z" fill="#79B8FF"></path><path opacity=".75" d="M261.051 1259.77c0-.71-.58-1.29-1.29-1.29-.71 0-1.29.58-1.29 1.29 0 .71.58 1.29 1.29 1.29.72 0 1.29-.58 1.29-1.29z" fill="#79B8FF"></path><path opacity=".75" d="M268.769 1259.77c0-.71-.58-1.29-1.29-1.29-.71 0-1.29.58-1.29 1.29 0 .71.58 1.29 1.29 1.29.71 0 1.29-.58 1.29-1.29z" fill="#79B8FF"></path><path opacity=".75" d="M275.2 1261.06a1.291 1.291 0 000-2.58c-.712 0-1.29.58-1.29 1.29 0 .71.578 1.29 1.29 1.29z" fill="#79B8FF"></path><path opacity=".75" d="M236.29 1269.13c.71 0 1.29-.58 1.29-1.29 0-.71-.58-1.29-1.29-1.29-.71 0-1.29.58-1.29 1.29 0 .71.58 1.29 1.29 1.29z" fill="#79B8FF"></path><path opacity=".75" d="M244.329 1268.8c.71 0 1.29-.58 1.29-1.29 0-.71-.58-1.29-1.29-1.29-.71 0-1.29.58-1.29 1.29 0 .71.58 1.29 1.29 1.29z" fill="#79B8FF"></path><path opacity=".75" d="M252.05 1268.8c.71 0 1.29-.58 1.29-1.29 0-.71-.58-1.29-1.29-1.29-.71 0-1.29.58-1.29 1.29 0 .71.58 1.29 1.29 1.29z" fill="#79B8FF"></path><path opacity=".75" d="M261.051 1267.51c0-.71-.58-1.29-1.29-1.29-.71 0-1.29.58-1.29 1.29 0 .71.58 1.29 1.29 1.29.72 0 1.29-.58 1.29-1.29z" fill="#79B8FF"></path><path opacity=".75" d="M268.769 1267.51c0-.71-.58-1.29-1.29-1.29-.71 0-1.29.58-1.29 1.29 0 .71.58 1.29 1.29 1.29.71 0 1.29-.58 1.29-1.29z" fill="#79B8FF"></path><path opacity=".75" d="M276.49 1267.51c0-.71-.58-1.29-1.29-1.29-.71 0-1.29.58-1.29 1.29 0 .71.58 1.29 1.29 1.29.71 0 1.29-.58 1.29-1.29z" fill="#79B8FF"></path><path opacity=".75" d="M236.29 1276.87c.71 0 1.29-.58 1.29-1.29 0-.71-.58-1.29-1.29-1.29-.71 0-1.29.58-1.29 1.29 0 .71.58 1.29 1.29 1.29z" fill="#79B8FF"></path><path opacity=".75" d="M244.329 1276.54a1.291 1.291 0 000-2.58c-.712 0-1.29.58-1.29 1.29 0 .71.578 1.29 1.29 1.29z" fill="#79B8FF"></path><path opacity=".75" d="M252.05 1276.54c.712 0 1.29-.58 1.29-1.29a1.291 1.291 0 10-1.29 1.29z" fill="#79B8FF"></path><path opacity=".75" d="M259.77 1276.54c.71 0 1.29-.58 1.29-1.29 0-.71-.58-1.29-1.29-1.29-.71 0-1.29.58-1.29 1.29 0 .71.58 1.29 1.29 1.29z" fill="#79B8FF"></path><path opacity=".75" d="M268.769 1275.25c0-.71-.58-1.29-1.29-1.29-.71 0-1.29.58-1.29 1.29 0 .71.58 1.29 1.29 1.29.71 0 1.29-.58 1.29-1.29z" fill="#79B8FF"></path><path opacity=".75" d="M275.2 1276.54a1.291 1.291 0 000-2.58c-.712 0-1.29.58-1.29 1.29 0 .71.578 1.29 1.29 1.29z" fill="#79B8FF"></path><path opacity=".75" d="M236.29 1284.61c.71 0 1.29-.58 1.29-1.29 0-.71-.58-1.29-1.29-1.29-.71 0-1.29.58-1.29 1.29 0 .71.58 1.29 1.29 1.29z" fill="#79B8FF"></path><path opacity=".75" d="M244.329 1284.28a1.291 1.291 0 000-2.58c-.712 0-1.29.58-1.29 1.29 0 .71.578 1.29 1.29 1.29z" fill="#79B8FF"></path><path opacity=".75" d="M252.05 1284.28c.712 0 1.29-.58 1.29-1.29a1.291 1.291 0 10-1.29 1.29z" fill="#79B8FF"></path><path opacity=".75" d="M259.77 1284.28c.71 0 1.29-.58 1.29-1.29 0-.71-.58-1.29-1.29-1.29-.71 0-1.29.58-1.29 1.29 0 .71.58 1.29 1.29 1.29z" fill="#79B8FF"></path><path opacity=".75" d="M267.479 1284.28c.71 0 1.29-.58 1.29-1.29 0-.71-.58-1.29-1.29-1.29-.71 0-1.29.58-1.29 1.29a1.3 1.3 0 001.29 1.29z" fill="#79B8FF"></path><path opacity=".75" d="M275.2 1284.28a1.291 1.291 0 000-2.58c-.712 0-1.29.58-1.29 1.29 0 .71.578 1.29 1.29 1.29z" fill="#79B8FF"></path><path opacity=".75" d="M281.84 1291.01c0 .71.58 1.29 1.29 1.29.71 0 1.29-.58 1.29-1.29 0-.71-.58-1.29-1.29-1.29-.71 0-1.29.58-1.29 1.29z" fill="#79B8FF"></path><path opacity=".75" d="M290.851 1289.72c-.71 0-1.29.58-1.29 1.29 0 .71.58 1.29 1.29 1.29.71 0 1.29-.58 1.29-1.29a1.3 1.3 0 00-1.29-1.29z" fill="#79B8FF"></path><path opacity=".75" d="M298.56 1289.72c-.71 0-1.29.58-1.29 1.29 0 .71.58 1.29 1.29 1.29.71 0 1.29-.58 1.29-1.29 0-.71-.58-1.29-1.29-1.29z" fill="#79B8FF"></path><path opacity=".75" d="M306.28 1289.72c-.71 0-1.29.58-1.29 1.29 0 .71.58 1.29 1.29 1.29.71 0 1.29-.58 1.29-1.29 0-.71-.58-1.29-1.29-1.29z" fill="#79B8FF"></path><path opacity=".75" d="M314.001 1289.72c-.71 0-1.29.58-1.29 1.29 0 .71.58 1.29 1.29 1.29.71 0 1.29-.58 1.29-1.29a1.3 1.3 0 00-1.29-1.29z" fill="#79B8FF"></path><path opacity=".75" d="M321.71 1289.72c-.71 0-1.29.58-1.29 1.29 0 .71.58 1.29 1.29 1.29.71 0 1.29-.58 1.29-1.29 0-.71-.58-1.29-1.29-1.29z" fill="#79B8FF"></path><path opacity=".75" d="M281.84 1298.75c0 .71.58 1.29 1.29 1.29.71 0 1.29-.58 1.29-1.29 0-.71-.58-1.29-1.29-1.29-.71 0-1.29.58-1.29 1.29z" fill="#79B8FF"></path><path opacity=".75" d="M289.561 1298.75c0 .71.58 1.29 1.29 1.29.71 0 1.29-.58 1.29-1.29 0-.71-.58-1.29-1.29-1.29-.71 0-1.29.58-1.29 1.29z" fill="#79B8FF"></path><path opacity=".75" d="M298.56 1297.46c-.71 0-1.29.58-1.29 1.29 0 .71.58 1.29 1.29 1.29.71 0 1.29-.58 1.29-1.29 0-.71-.58-1.29-1.29-1.29z" fill="#79B8FF"></path><path opacity=".75" d="M306.28 1297.46c-.71 0-1.29.58-1.29 1.29 0 .71.58 1.29 1.29 1.29.71 0 1.29-.58 1.29-1.29 0-.71-.58-1.29-1.29-1.29z" fill="#79B8FF"></path><path opacity=".75" d="M314.001 1297.46c-.71 0-1.29.58-1.29 1.29 0 .71.58 1.29 1.29 1.29.71 0 1.29-.58 1.29-1.29a1.3 1.3 0 00-1.29-1.29z" fill="#79B8FF"></path><path opacity=".75" d="M321.71 1297.46c-.71 0-1.29.58-1.29 1.29 0 .71.58 1.29 1.29 1.29.71 0 1.29-.58 1.29-1.29 0-.71-.58-1.29-1.29-1.29z" fill="#79B8FF"></path><path opacity=".75" d="M281.84 1306.49c0 .71.58 1.29 1.29 1.29.71 0 1.29-.58 1.29-1.29 0-.71-.58-1.29-1.29-1.29-.71 0-1.29.58-1.29 1.29z" fill="#79B8FF"></path><path opacity=".75" d="M289.561 1306.49c0 .71.58 1.29 1.29 1.29.71 0 1.29-.58 1.29-1.29 0-.71-.58-1.29-1.29-1.29-.71 0-1.29.58-1.29 1.29z" fill="#79B8FF"></path><path opacity=".75" d="M297.279 1306.49c0 .71.58 1.29 1.29 1.29.71 0 1.29-.58 1.29-1.29 0-.71-.58-1.29-1.29-1.29-.72 0-1.29.58-1.29 1.29z" fill="#79B8FF"></path><path opacity=".75" d="M306.28 1305.2c-.71 0-1.29.58-1.29 1.29 0 .71.58 1.29 1.29 1.29.71 0 1.29-.58 1.29-1.29 0-.71-.58-1.29-1.29-1.29z" fill="#79B8FF"></path><path opacity=".75" d="M314.001 1305.2c-.71 0-1.29.58-1.29 1.29 0 .71.58 1.29 1.29 1.29.71 0 1.29-.58 1.29-1.29 0-.71-.58-1.29-1.29-1.29z" fill="#79B8FF"></path><path opacity=".75" d="M321.71 1305.2c-.71 0-1.29.58-1.29 1.29 0 .71.58 1.29 1.29 1.29.71 0 1.29-.58 1.29-1.29 0-.71-.58-1.29-1.29-1.29z" fill="#79B8FF"></path><path opacity=".75" d="M281.84 1314.23c0 .71.58 1.29 1.29 1.29.71 0 1.29-.58 1.29-1.29 0-.71-.58-1.29-1.29-1.29-.71 0-1.29.58-1.29 1.29z" fill="#79B8FF"></path><path opacity=".75" d="M289.561 1314.23c0 .71.58 1.29 1.29 1.29.71 0 1.29-.58 1.29-1.29 0-.71-.58-1.29-1.29-1.29-.71 0-1.29.58-1.29 1.29z" fill="#79B8FF"></path><path opacity=".75" d="M297.279 1314.23c0 .71.58 1.29 1.29 1.29.71 0 1.29-.58 1.29-1.29 0-.71-.58-1.29-1.29-1.29-.72 0-1.29.58-1.29 1.29z" fill="#79B8FF"></path><path opacity=".75" d="M304.99 1314.23c0 .71.58 1.29 1.29 1.29.71 0 1.29-.58 1.29-1.29 0-.71-.58-1.29-1.29-1.29-.71 0-1.29.58-1.29 1.29z" fill="#79B8FF"></path><path opacity=".75" d="M314.001 1312.94c-.71 0-1.29.58-1.29 1.29 0 .71.58 1.29 1.29 1.29.71 0 1.29-.58 1.29-1.29a1.3 1.3 0 00-1.29-1.29z" fill="#79B8FF"></path><path opacity=".75" d="M321.71 1312.94c-.71 0-1.29.58-1.29 1.29 0 .71.58 1.29 1.29 1.29.71 0 1.29-.58 1.29-1.29 0-.71-.58-1.29-1.29-1.29z" fill="#79B8FF"></path><path opacity=".75" d="M281.84 1321.97c0 .71.58 1.29 1.29 1.29.71 0 1.29-.58 1.29-1.29 0-.71-.58-1.29-1.29-1.29-.71 0-1.29.58-1.29 1.29z" fill="#79B8FF"></path><path opacity=".75" d="M289.561 1321.97c0 .71.58 1.29 1.29 1.29.71 0 1.29-.58 1.29-1.29 0-.71-.58-1.29-1.29-1.29-.71 0-1.29.58-1.29 1.29z" fill="#79B8FF"></path><path opacity=".75" d="M297.279 1321.97c0 .71.58 1.29 1.29 1.29.71 0 1.29-.58 1.29-1.29 0-.71-.58-1.29-1.29-1.29-.72 0-1.29.58-1.29 1.29z" fill="#79B8FF"></path><path opacity=".75" d="M304.99 1321.97c0 .71.58 1.29 1.29 1.29.71 0 1.29-.58 1.29-1.29 0-.71-.58-1.29-1.29-1.29-.71 0-1.29.58-1.29 1.29z" fill="#79B8FF"></path><path opacity=".75" d="M312.711 1321.97c0 .71.58 1.29 1.29 1.29.71 0 1.29-.58 1.29-1.29 0-.71-.58-1.29-1.29-1.29-.71 0-1.29.58-1.29 1.29z" fill="#79B8FF"></path><path opacity=".75" d="M321.71 1320.68c-.71 0-1.29.58-1.29 1.29 0 .71.58 1.29 1.29 1.29.71 0 1.29-.58 1.29-1.29 0-.71-.58-1.29-1.29-1.29z" fill="#79B8FF"></path><path opacity=".75" d="M283.13 1328.42c-.71 0-1.29.58-1.29 1.29 0 .71.58 1.29 1.29 1.29.71 0 1.29-.58 1.29-1.29 0-.71-.58-1.29-1.29-1.29z" fill="#79B8FF"></path><path opacity=".75" d="M290.851 1328.42c-.71 0-1.29.58-1.29 1.29 0 .71.58 1.29 1.29 1.29.71 0 1.29-.58 1.29-1.29a1.3 1.3 0 00-1.29-1.29z" fill="#79B8FF"></path><path opacity=".75" d="M298.56 1328.42c-.71 0-1.29.58-1.29 1.29 0 .71.58 1.29 1.29 1.29.71 0 1.29-.58 1.29-1.29 0-.71-.58-1.29-1.29-1.29z" fill="#79B8FF"></path><path opacity=".75" d="M306.28 1328.42c-.71 0-1.29.58-1.29 1.29 0 .71.58 1.29 1.29 1.29.71 0 1.29-.58 1.29-1.29 0-.71-.58-1.29-1.29-1.29z" fill="#79B8FF"></path><path opacity=".75" d="M314.001 1328.42c-.71 0-1.29.58-1.29 1.29 0 .71.58 1.29 1.29 1.29.71 0 1.29-.58 1.29-1.29a1.3 1.3 0 00-1.29-1.29z" fill="#79B8FF"></path><path opacity=".75" d="M321.71 1328.42c-.71 0-1.29.58-1.29 1.29 0 .71.58 1.29 1.29 1.29.71 0 1.29-.58 1.29-1.29 0-.71-.58-1.29-1.29-1.29z" fill="#79B8FF"></path><path opacity=".75" d="M283.13 1245.58c.712 0 1.29-.58 1.29-1.29a1.291 1.291 0 10-1.29 1.29z" fill="#79B8FF"></path><path opacity=".75" d="M290.851 1245.58c.71 0 1.29-.58 1.29-1.29 0-.71-.58-1.29-1.29-1.29-.71 0-1.29.58-1.29 1.29 0 .71.58 1.29 1.29 1.29z" fill="#79B8FF"></path><path opacity=".75" d="M298.56 1245.58c.71 0 1.29-.58 1.29-1.29 0-.71-.58-1.29-1.29-1.29-.71 0-1.29.58-1.29 1.29a1.3 1.3 0 001.29 1.29z" fill="#79B8FF"></path><path opacity=".75" d="M306.28 1245.58a1.291 1.291 0 000-2.58c-.712 0-1.29.58-1.29 1.29 0 .71.578 1.29 1.29 1.29z" fill="#79B8FF"></path><path opacity=".75" d="M314.001 1245.58c.71 0 1.29-.58 1.29-1.29a1.3 1.3 0 00-1.29-1.29c-.71 0-1.29.58-1.29 1.29 0 .71.58 1.29 1.29 1.29z" fill="#79B8FF"></path><path opacity=".75" d="M321.71 1245.58c.712 0 1.29-.58 1.29-1.29a1.291 1.291 0 10-1.29 1.29z" fill="#79B8FF"></path><path opacity=".75" d="M284.42 1252.03c0-.71-.58-1.29-1.29-1.29-.71 0-1.29.58-1.29 1.29 0 .71.58 1.29 1.29 1.29.71 0 1.29-.58 1.29-1.29z" fill="#79B8FF"></path><path opacity=".75" d="M292.131 1252.03c0-.71-.58-1.29-1.29-1.29-.71 0-1.29.58-1.29 1.29 0 .71.58 1.29 1.29 1.29.72 0 1.29-.58 1.29-1.29z" fill="#79B8FF"></path><path opacity=".75" d="M299.85 1252.03c0-.71-.58-1.29-1.29-1.29-.71 0-1.29.58-1.29 1.29 0 .71.58 1.29 1.29 1.29.71 0 1.29-.58 1.29-1.29z" fill="#79B8FF"></path><path opacity=".75" d="M307.57 1252.03c0-.71-.58-1.29-1.29-1.29-.71 0-1.29.58-1.29 1.29 0 .71.58 1.29 1.29 1.29.71 0 1.29-.58 1.29-1.29z" fill="#79B8FF"></path><path opacity=".75" d="M314.001 1250.74c-.71 0-1.29.58-1.29 1.29 0 .71.58 1.29 1.29 1.29.71 0 1.29-.58 1.29-1.29a1.3 1.3 0 00-1.29-1.29z" fill="#79B8FF"></path><path opacity=".75" d="M321.71 1250.74c-.71 0-1.29.58-1.29 1.29 0 .71.58 1.29 1.29 1.29.71 0 1.29-.58 1.29-1.29 0-.71-.58-1.29-1.29-1.29z" fill="#79B8FF"></path><path opacity=".75" d="M283.13 1261.06c.712 0 1.29-.58 1.29-1.29a1.291 1.291 0 10-1.29 1.29z" fill="#79B8FF"></path><path opacity=".75" d="M292.131 1259.77c0-.71-.58-1.29-1.29-1.29-.71 0-1.29.58-1.29 1.29 0 .71.58 1.29 1.29 1.29.72 0 1.29-.58 1.29-1.29z" fill="#79B8FF"></path><path opacity=".75" d="M299.85 1259.77c0-.71-.58-1.29-1.29-1.29-.71 0-1.29.58-1.29 1.29 0 .71.58 1.29 1.29 1.29.71 0 1.29-.58 1.29-1.29z" fill="#79B8FF"></path><path opacity=".75" d="M306.28 1261.06a1.291 1.291 0 000-2.58c-.712 0-1.29.58-1.29 1.29 0 .71.578 1.29 1.29 1.29z" fill="#79B8FF"></path><path opacity=".75" d="M314.001 1258.48c-.71 0-1.29.58-1.29 1.29 0 .71.58 1.29 1.29 1.29.71 0 1.29-.58 1.29-1.29 0-.71-.58-1.29-1.29-1.29z" fill="#79B8FF"></path><path opacity=".75" d="M321.71 1261.06c.712 0 1.29-.58 1.29-1.29a1.291 1.291 0 10-1.29 1.29z" fill="#79B8FF"></path><path opacity=".75" d="M284.42 1267.51c0-.71-.58-1.29-1.29-1.29-.71 0-1.29.58-1.29 1.29 0 .71.58 1.29 1.29 1.29.71 0 1.29-.58 1.29-1.29z" fill="#79B8FF"></path><path opacity=".75" d="M292.131 1267.51c0-.71-.58-1.29-1.29-1.29-.71 0-1.29.58-1.29 1.29 0 .71.58 1.29 1.29 1.29.72 0 1.29-.58 1.29-1.29z" fill="#79B8FF"></path><path opacity=".75" d="M298.56 1266.22c-.71 0-1.29.58-1.29 1.29 0 .71.58 1.29 1.29 1.29.71 0 1.29-.58 1.29-1.29 0-.71-.58-1.29-1.29-1.29z" fill="#79B8FF"></path><path opacity=".75" d="M306.28 1266.22c-.71 0-1.29.58-1.29 1.29 0 .71.58 1.29 1.29 1.29.71 0 1.29-.58 1.29-1.29 0-.71-.58-1.29-1.29-1.29z" fill="#79B8FF"></path><path opacity=".75" d="M314.001 1266.22c-.71 0-1.29.58-1.29 1.29 0 .71.58 1.29 1.29 1.29.71 0 1.29-.58 1.29-1.29a1.3 1.3 0 00-1.29-1.29z" fill="#79B8FF"></path><path opacity=".75" d="M321.71 1266.22c-.71 0-1.29.58-1.29 1.29 0 .71.58 1.29 1.29 1.29.71 0 1.29-.58 1.29-1.29 0-.71-.58-1.29-1.29-1.29z" fill="#79B8FF"></path><path opacity=".75" d="M283.13 1276.54c.712 0 1.29-.58 1.29-1.29a1.291 1.291 0 10-1.29 1.29z" fill="#79B8FF"></path><path opacity=".75" d="M290.851 1273.96c-.71 0-1.29.58-1.29 1.29 0 .71.58 1.29 1.29 1.29.71 0 1.29-.58 1.29-1.29a1.3 1.3 0 00-1.29-1.29z" fill="#79B8FF"></path><path opacity=".75" d="M298.56 1273.96c-.71 0-1.29.58-1.29 1.29 0 .71.58 1.29 1.29 1.29.71 0 1.29-.58 1.29-1.29 0-.71-.58-1.29-1.29-1.29z" fill="#79B8FF"></path><path opacity=".75" d="M306.28 1276.54a1.291 1.291 0 000-2.58c-.712 0-1.29.58-1.29 1.29 0 .71.578 1.29 1.29 1.29z" fill="#79B8FF"></path><path opacity=".75" d="M314.001 1273.96c-.71 0-1.29.58-1.29 1.29 0 .71.58 1.29 1.29 1.29.71 0 1.29-.58 1.29-1.29a1.3 1.3 0 00-1.29-1.29z" fill="#79B8FF"></path><path opacity=".75" d="M321.71 1276.54c.712 0 1.29-.58 1.29-1.29a1.291 1.291 0 10-1.29 1.29z" fill="#79B8FF"></path><path opacity=".75" d="M283.13 1284.28c.712 0 1.29-.58 1.29-1.29a1.291 1.291 0 10-1.29 1.29z" fill="#79B8FF"></path><path opacity=".75" d="M290.851 1281.7c-.71 0-1.29.58-1.29 1.29 0 .71.58 1.29 1.29 1.29.71 0 1.29-.58 1.29-1.29a1.3 1.3 0 00-1.29-1.29z" fill="#79B8FF"></path><path opacity=".75" d="M298.56 1281.7c-.71 0-1.29.58-1.29 1.29 0 .71.58 1.29 1.29 1.29.71 0 1.29-.58 1.29-1.29 0-.71-.58-1.29-1.29-1.29z" fill="#79B8FF"></path><path opacity=".75" d="M306.28 1284.28a1.291 1.291 0 000-2.58c-.712 0-1.29.58-1.29 1.29 0 .71.578 1.29 1.29 1.29z" fill="#79B8FF"></path><path opacity=".75" d="M314.001 1281.7c-.71 0-1.29.58-1.29 1.29 0 .71.58 1.29 1.29 1.29.71 0 1.29-.58 1.29-1.29a1.3 1.3 0 00-1.29-1.29z" fill="#79B8FF"></path><path opacity=".75" d="M321.71 1284.28c.712 0 1.29-.58 1.29-1.29a1.291 1.291 0 10-1.29 1.29z" fill="#79B8FF"></path></g><g filter="url(#filter4_d)" class="actions-hero-card-3"><mask id="mask1" mask-type="alpha" maskUnits="userSpaceOnUse" x="761" y="687" width="422" height="340"><path d="M1183 687H761v340h422V687z" fill="#fff"></path><path fill-rule="evenodd" clip-rule="evenodd" d="M958 702H768a6 6 0 00-6 6v298c0 3.31 2.686 6 6 6h190c0 7.73 6.268 14 14 14s14-6.27 14-14h190c3.31 0 6-2.69 6-6V708c0-3.314-2.69-6-6-6H986c0-7.732-6.268-14-14-14s-14 6.268-14 14zm14 6a7 7 0 100-14 7 7 0 000 14zm7 304c0 3.87-3.134 7-7 7s-7-3.13-7-7 3.134-7 7-7 7 3.13 7 7z" fill="#000"></path></mask><g mask="url(#mask1)"><path fill-rule="evenodd" clip-rule="evenodd" d="M958 702H768a6 6 0 00-6 6v298c0 3.31 2.686 6 6 6h190c0 7.73 6.268 14 14 14s14-6.27 14-14h190c3.31 0 6-2.69 6-6V708c0-3.314-2.69-6-6-6H986c0-7.732-6.268-14-14-14s-14 6.268-14 14zm14 6a7 7 0 100-14 7 7 0 000 14zm7 304c0 3.87-3.134 7-7 7s-7-3.13-7-7 3.134-7 7-7 7 3.13 7 7z" fill="#fff"></path><path d="M958 702v1h1v-1h-1zm0 310h1v-1h-1v1zm28 0v-1h-1v1h1zm0-310h-1v1h1v-1zm-218 1h190v-2H768v2zm-5 5a5 5 0 015-5v-2a7 7 0 00-7 7h2zm0 298V708h-2v298h2zm5 5c-2.761 0-5-2.24-5-5h-2c0 3.87 3.134 7 7 7v-2zm190 0H768v2h190v-2zm14 14c-7.18 0-13-5.82-13-13h-2c0 8.28 6.716 15 15 15v-2zm13-13c0 7.18-5.82 13-13 13v2c8.284 0 15-6.72 15-15h-2zm191-1H986v2h190v-2zm5-5c0 2.76-2.24 5-5 5v2c3.87 0 7-3.13 7-7h-2zm0-298v298h2V708h-2zm-5-5c2.76 0 5 2.239 5 5h2c0-3.866-3.13-7-7-7v2zm-190 0h190v-2H986v2zm-14-14c7.18 0 13 5.82 13 13h2c0-8.284-6.716-15-15-15v2zm-13 13c0-7.18 5.82-13 13-13v-2c-8.284 0-15 6.716-15 15h2zm19-1a6 6 0 01-6 6v2a8 8 0 008-8h-2zm-6-6a6 6 0 016 6h2a8 8 0 00-8-8v2zm-6 6a6 6 0 016-6v-2a8 8 0 00-8 8h2zm6 6a6 6 0 01-6-6h-2a8 8 0 008 8v-2zm0 313a8 8 0 008-8h-2c0 3.31-2.686 6-6 6v2zm-8-8a8 8 0 008 8v-2c-3.314 0-6-2.69-6-6h-2zm8-8a8 8 0 00-8 8h2c0-3.31 2.686-6 6-6v-2zm8 8a8 8 0 00-8-8v2c3.314 0 6 2.69 6 6h2z" fill="#1B1F23" fill-opacity=".05"></path><path d="M762 962h420" stroke="#EAECEF" stroke-miterlimit="10"></path><path d="M762 792h420" stroke="#EAECEF" stroke-miterlimit="10"></path><g filter="url(#filter5_i)"><path d="M1129 776c16.01 0 29-12.984 29-29s-12.99-29-29-29c-16.02 0-29 12.984-29 29s12.98 29 29 29z" fill="#fff"></path></g><path d="M1157.5 747c0 15.74-12.76 28.5-28.5 28.5s-28.5-12.76-28.5-28.5 12.76-28.5 28.5-28.5 28.5 12.76 28.5 28.5z" stroke="#1B1F23" stroke-opacity=".02"></path></g><path d="M794 738h193m-193 20h103" stroke="#E1E4E8" stroke-opacity=".7" stroke-width="5" stroke-linecap="round"></path></g><g opacity=".75" class="actions-hero-flourish"><g opacity=".85" filter="url(#filter6_d)"><path opacity=".85" d="M1205 936.95h-78c-2.76 0-5-2.24-5-5v-78c0-2.76 2.24-5 5-5h78c2.76 0 5 2.24 5 5v78c0 2.76-2.24 5-5 5z" fill="#fff"></path><path opacity=".85" d="M1127 937.45h78a5.5 5.5 0 005.5-5.5v-78a5.5 5.5 0 00-5.5-5.5h-78a5.5 5.5 0 00-5.5 5.5v78a5.5 5.5 0 005.5 5.5z" stroke="#1B1F23" stroke-opacity=".05"></path></g><path opacity=".75" d="M1153.29 878.63c.71 0 1.29-.58 1.29-1.29 0-.71-.58-1.29-1.29-1.29-.71 0-1.29.58-1.29 1.29 0 .71.58 1.29 1.29 1.29z" fill="#79B8FF"></path><path opacity=".75" d="M1161.33 878.3c.71 0 1.29-.58 1.29-1.29 0-.71-.58-1.29-1.29-1.29-.71 0-1.29.58-1.29 1.29 0 .71.58 1.29 1.29 1.29z" fill="#79B8FF"></path><path opacity=".75" d="M1169.05 878.3c.71 0 1.29-.58 1.29-1.29 0-.71-.58-1.29-1.29-1.29-.71 0-1.29.58-1.29 1.29 0 .71.58 1.29 1.29 1.29z" fill="#79B8FF"></path><path opacity=".75" d="M1176.77 878.3c.71 0 1.29-.58 1.29-1.29 0-.71-.58-1.29-1.29-1.29-.71 0-1.29.58-1.29 1.29 0 .71.58 1.29 1.29 1.29z" fill="#79B8FF"></path><path opacity=".75" d="M1184.48 878.3c.71 0 1.29-.58 1.29-1.29 0-.71-.58-1.29-1.29-1.29-.71 0-1.29.58-1.29 1.29a1.3 1.3 0 001.29 1.29z" fill="#79B8FF"></path><path opacity=".75" d="M1190.91 877.01c0 .71.58 1.29 1.29 1.29.71 0 1.29-.58 1.29-1.29 0-.71-.58-1.29-1.29-1.29-.71 0-1.29.58-1.29 1.29z" fill="#79B8FF"></path><path opacity=".75" d="M1153.29 886.37c.71 0 1.29-.58 1.29-1.29 0-.71-.58-1.29-1.29-1.29-.71 0-1.29.58-1.29 1.29 0 .71.58 1.29 1.29 1.29z" fill="#79B8FF"></path><path opacity=".75" d="M1161.33 886.04c.71 0 1.29-.58 1.29-1.29 0-.71-.58-1.29-1.29-1.29-.71 0-1.29.58-1.29 1.29 0 .71.58 1.29 1.29 1.29z" fill="#79B8FF"></path><path opacity=".75" d="M1169.05 886.04c.71 0 1.29-.58 1.29-1.29 0-.71-.58-1.29-1.29-1.29-.71 0-1.29.58-1.29 1.29 0 .71.58 1.29 1.29 1.29z" fill="#79B8FF"></path><path opacity=".75" d="M1176.77 886.04c.71 0 1.29-.58 1.29-1.29 0-.71-.58-1.29-1.29-1.29-.71 0-1.29.58-1.29 1.29 0 .71.58 1.29 1.29 1.29z" fill="#79B8FF"></path><path opacity=".75" d="M1183.2 884.75c0 .71.58 1.29 1.29 1.29.71 0 1.29-.58 1.29-1.29 0-.71-.58-1.29-1.29-1.29-.72 0-1.29.58-1.29 1.29z" fill="#79B8FF"></path><path opacity=".75" d="M1190.91 884.75c0 .71.58 1.29 1.29 1.29.71 0 1.29-.58 1.29-1.29 0-.71-.58-1.29-1.29-1.29-.71 0-1.29.58-1.29 1.29z" fill="#79B8FF"></path><path opacity=".75" d="M1153.29 894.11c.71 0 1.29-.58 1.29-1.29 0-.71-.58-1.29-1.29-1.29-.71 0-1.29.58-1.29 1.29 0 .71.58 1.29 1.29 1.29z" fill="#79B8FF"></path><path opacity=".75" d="M1161.33 893.78c.71 0 1.29-.58 1.29-1.29 0-.71-.58-1.29-1.29-1.29-.71 0-1.29.58-1.29 1.29 0 .71.58 1.29 1.29 1.29z" fill="#79B8FF"></path><path opacity=".75" d="M1169.05 893.78c.71 0 1.29-.58 1.29-1.29 0-.71-.58-1.29-1.29-1.29-.71 0-1.29.58-1.29 1.29 0 .71.58 1.29 1.29 1.29z" fill="#79B8FF"></path><path opacity=".75" d="M1175.48 892.49c0 .71.58 1.29 1.29 1.29.71 0 1.29-.58 1.29-1.29 0-.71-.58-1.29-1.29-1.29-.71 0-1.29.58-1.29 1.29z" fill="#79B8FF"></path><path opacity=".75" d="M1183.2 892.49c0 .71.58 1.29 1.29 1.29.71 0 1.29-.58 1.29-1.29 0-.71-.58-1.29-1.29-1.29-.72 0-1.29.58-1.29 1.29z" fill="#79B8FF"></path><path opacity=".75" d="M1190.91 892.49c0 .71.58 1.29 1.29 1.29.71 0 1.29-.58 1.29-1.29 0-.71-.58-1.29-1.29-1.29-.71 0-1.29.58-1.29 1.29z" fill="#79B8FF"></path><path opacity=".75" d="M1153.29 901.85c.71 0 1.29-.58 1.29-1.29 0-.71-.58-1.29-1.29-1.29-.71 0-1.29.58-1.29 1.29 0 .71.58 1.29 1.29 1.29z" fill="#79B8FF"></path><path opacity=".75" d="M1161.33 901.52c.71 0 1.29-.58 1.29-1.29 0-.71-.58-1.29-1.29-1.29-.71 0-1.29.58-1.29 1.29 0 .71.58 1.29 1.29 1.29z" fill="#79B8FF"></path><path opacity=".75" d="M1167.76 900.23c0 .71.58 1.29 1.29 1.29.71 0 1.29-.58 1.29-1.29 0-.71-.58-1.29-1.29-1.29-.71 0-1.29.58-1.29 1.29z" fill="#79B8FF"></path><path opacity=".75" d="M1175.48 900.23c0 .71.58 1.29 1.29 1.29.71 0 1.29-.58 1.29-1.29 0-.71-.58-1.29-1.29-1.29-.71 0-1.29.58-1.29 1.29z" fill="#79B8FF"></path><path opacity=".75" d="M1183.2 900.23c0 .71.58 1.29 1.29 1.29.71 0 1.29-.58 1.29-1.29 0-.71-.58-1.29-1.29-1.29-.72 0-1.29.58-1.29 1.29z" fill="#79B8FF"></path><path opacity=".75" d="M1190.91 900.23c0 .71.58 1.29 1.29 1.29.71 0 1.29-.58 1.29-1.29 0-.71-.58-1.29-1.29-1.29-.71 0-1.29.58-1.29 1.29z" fill="#79B8FF"></path><path opacity=".75" d="M1154.57 908.3c0-.71-.58-1.29-1.29-1.29a1.291 1.291 0 00.01 2.58c.71 0 1.28-.58 1.28-1.29z" fill="#79B8FF"></path><path opacity=".75" d="M1160.04 907.97c0 .71.58 1.29 1.29 1.29.71 0 1.29-.58 1.29-1.29 0-.71-.58-1.29-1.29-1.29-.71 0-1.29.58-1.29 1.29z" fill="#79B8FF"></path><path opacity=".75" d="M1167.76 907.97c0 .71.58 1.29 1.29 1.29.71 0 1.29-.58 1.29-1.29 0-.71-.58-1.29-1.29-1.29-.71 0-1.29.58-1.29 1.29z" fill="#79B8FF"></path><path opacity=".75" d="M1175.48 907.97c0 .71.58 1.29 1.29 1.29.71 0 1.29-.58 1.29-1.29 0-.71-.58-1.29-1.29-1.29-.71 0-1.29.58-1.29 1.29z" fill="#79B8FF"></path><path opacity=".75" d="M1183.2 907.97c0 .71.58 1.29 1.29 1.29.71 0 1.29-.58 1.29-1.29 0-.71-.58-1.29-1.29-1.29-.72 0-1.29.58-1.29 1.29z" fill="#79B8FF"></path><path opacity=".75" d="M1190.91 907.97c0 .71.58 1.29 1.29 1.29.71 0 1.29-.58 1.29-1.29 0-.71-.58-1.29-1.29-1.29-.71 0-1.29.58-1.29 1.29z" fill="#79B8FF"></path><path opacity=".75" d="M1152.33 915.71c0 .71.57 1.29 1.29 1.29.71 0 1.29-.58 1.29-1.29 0-.71-.58-1.29-1.29-1.29-.72 0-1.29.58-1.29 1.29z" fill="#79B8FF"></path><path opacity=".75" d="M1161.33 914.42c-.71 0-1.29.58-1.29 1.29 0 .71.58 1.29 1.29 1.29.71 0 1.29-.58 1.29-1.29 0-.71-.58-1.29-1.29-1.29z" fill="#79B8FF"></path><path opacity=".75" d="M1169.05 914.42c-.71 0-1.29.58-1.29 1.29 0 .71.58 1.29 1.29 1.29.71 0 1.29-.58 1.29-1.29 0-.71-.58-1.29-1.29-1.29z" fill="#79B8FF"></path><path opacity=".75" d="M1176.77 914.42c-.71 0-1.29.58-1.29 1.29 0 .71.58 1.29 1.29 1.29.71 0 1.29-.58 1.29-1.29a1.3 1.3 0 00-1.29-1.29z" fill="#79B8FF"></path><path opacity=".75" d="M1184.48 914.42c-.71 0-1.29.58-1.29 1.29 0 .71.58 1.29 1.29 1.29.71 0 1.29-.58 1.29-1.29 0-.71-.58-1.29-1.29-1.29z" fill="#79B8FF"></path><path opacity=".75" d="M1192.2 914.42c-.71 0-1.29.58-1.29 1.29 0 .71.58 1.29 1.29 1.29.71 0 1.29-.58 1.29-1.29 0-.71-.58-1.29-1.29-1.29z" fill="#79B8FF"></path><path opacity=".75" d="M1153.29 831.91c.71 0 1.29-.58 1.29-1.29 0-.71-.58-1.29-1.29-1.29-.71 0-1.29.58-1.29 1.29 0 .71.58 1.29 1.29 1.29z" fill="#79B8FF"></path><path opacity=".75" d="M1161 831.91a1.291 1.291 0 000-2.58 1.291 1.291 0 000 2.58z" fill="#79B8FF"></path><path opacity=".75" d="M1168.72 831.91a1.291 1.291 0 000-2.58 1.291 1.291 0 000 2.58z" fill="#79B8FF"></path><path opacity=".75" d="M1176.44 831.91c.71 0 1.29-.58 1.29-1.29 0-.71-.58-1.29-1.29-1.29-.71 0-1.29.58-1.29 1.29 0 .71.58 1.29 1.29 1.29z" fill="#79B8FF"></path><path opacity=".75" d="M1185.77 830.29c0-.71-.58-1.29-1.29-1.29-.71 0-1.29.58-1.29 1.29 0 .71.58 1.29 1.29 1.29.71 0 1.29-.58 1.29-1.29z" fill="#79B8FF"></path><path opacity=".75" d="M1192.2 831.58c.71 0 1.29-.578 1.29-1.29 0-.712-.58-1.29-1.29-1.29-.71 0-1.29.578-1.29 1.29 0 .712.58 1.29 1.29 1.29z" fill="#79B8FF"></path><path opacity=".75" d="M1153.29 839.65c.71 0 1.29-.58 1.29-1.29 0-.71-.58-1.29-1.29-1.29-.71 0-1.29.58-1.29 1.29 0 .71.58 1.29 1.29 1.29z" fill="#79B8FF"></path><path opacity=".75" d="M1160.04 838.03c0 .71.58 1.29 1.29 1.29.71 0 1.29-.58 1.29-1.29 0-.71-.58-1.29-1.29-1.29-.71 0-1.29.58-1.29 1.29z" fill="#79B8FF"></path><path opacity=".75" d="M1167.76 838.03c0 .71.58 1.29 1.29 1.29.71 0 1.29-.58 1.29-1.29 0-.71-.58-1.29-1.29-1.29-.71 0-1.29.58-1.29 1.29z" fill="#79B8FF"></path><path opacity=".75" d="M1175.48 838.03c0 .71.58 1.29 1.29 1.29.71 0 1.29-.58 1.29-1.29 0-.71-.58-1.29-1.29-1.29-.71 0-1.29.58-1.29 1.29z" fill="#79B8FF"></path><path opacity=".75" d="M1185.77 838.03c0-.71-.58-1.29-1.29-1.29-.71 0-1.29.58-1.29 1.29 0 .71.58 1.29 1.29 1.29.71 0 1.29-.58 1.29-1.29z" fill="#79B8FF"></path><path opacity=".75" d="M1193.49 838.03c0-.71-.58-1.29-1.29-1.29-.71 0-1.29.58-1.29 1.29 0 .71.58 1.29 1.29 1.29.71 0 1.29-.58 1.29-1.29z" fill="#79B8FF"></path><path opacity=".75" d="M1153.29 847.39c.71 0 1.29-.58 1.29-1.29 0-.71-.58-1.29-1.29-1.29-.71 0-1.29.58-1.29 1.29 0 .71.58 1.29 1.29 1.29z" fill="#79B8FF"></path><path opacity=".75" d="M1161.33 847.06c.71 0 1.29-.578 1.29-1.29 0-.712-.58-1.29-1.29-1.29-.71 0-1.29.578-1.29 1.29 0 .712.58 1.29 1.29 1.29z" fill="#79B8FF"></path><path opacity=".75" d="M1169.05 847.06c.71 0 1.29-.578 1.29-1.29 0-.712-.58-1.29-1.29-1.29-.71 0-1.29.578-1.29 1.29 0 .712.58 1.29 1.29 1.29z" fill="#79B8FF"></path><path opacity=".75" d="M1178.05 845.77c0-.71-.58-1.29-1.29-1.29-.71 0-1.29.58-1.29 1.29 0 .71.58 1.29 1.29 1.29.72 0 1.29-.58 1.29-1.29z" fill="#79B8FF"></path><path opacity=".75" d="M1185.77 845.77c0-.71-.58-1.29-1.29-1.29-.71 0-1.29.58-1.29 1.29 0 .71.58 1.29 1.29 1.29.71 0 1.29-.58 1.29-1.29z" fill="#79B8FF"></path><path opacity=".75" d="M1192.2 847.06c.71 0 1.29-.578 1.29-1.29 0-.712-.58-1.29-1.29-1.29-.71 0-1.29.578-1.29 1.29 0 .712.58 1.29 1.29 1.29z" fill="#79B8FF"></path><path opacity=".75" d="M1153.29 855.13c.71 0 1.29-.58 1.29-1.29 0-.71-.58-1.29-1.29-1.29-.71 0-1.29.58-1.29 1.29 0 .71.58 1.29 1.29 1.29z" fill="#79B8FF"></path><path opacity=".75" d="M1161.33 854.8c.71 0 1.29-.58 1.29-1.29 0-.71-.58-1.29-1.29-1.29-.71 0-1.29.58-1.29 1.29 0 .71.58 1.29 1.29 1.29z" fill="#79B8FF"></path><path opacity=".75" d="M1169.05 854.8c.71 0 1.29-.58 1.29-1.29 0-.71-.58-1.29-1.29-1.29-.71 0-1.29.58-1.29 1.29 0 .71.58 1.29 1.29 1.29z" fill="#79B8FF"></path><path opacity=".75" d="M1178.05 853.51c0-.71-.58-1.29-1.29-1.29-.71 0-1.29.58-1.29 1.29 0 .71.58 1.29 1.29 1.29.72 0 1.29-.58 1.29-1.29z" fill="#79B8FF"></path><path opacity=".75" d="M1185.77 853.51c0-.71-.58-1.29-1.29-1.29-.71 0-1.29.58-1.29 1.29 0 .71.58 1.29 1.29 1.29.71 0 1.29-.58 1.29-1.29z" fill="#79B8FF"></path><path opacity=".75" d="M1193.49 853.51c0-.71-.58-1.29-1.29-1.29-.71 0-1.29.58-1.29 1.29 0 .71.58 1.29 1.29 1.29.71 0 1.29-.58 1.29-1.29z" fill="#79B8FF"></path><path opacity=".75" d="M1153.29 862.87c.71 0 1.29-.58 1.29-1.29 0-.71-.58-1.29-1.29-1.29-.71 0-1.29.58-1.29 1.29 0 .71.58 1.29 1.29 1.29z" fill="#79B8FF"></path><path opacity=".75" d="M1161.33 862.54c.71 0 1.29-.578 1.29-1.29 0-.712-.58-1.29-1.29-1.29-.71 0-1.29.578-1.29 1.29 0 .712.58 1.29 1.29 1.29z" fill="#79B8FF"></path><path opacity=".75" d="M1169.05 862.54c.71 0 1.29-.578 1.29-1.29 0-.712-.58-1.29-1.29-1.29-.71 0-1.29.578-1.29 1.29 0 .712.58 1.29 1.29 1.29z" fill="#79B8FF"></path><path opacity=".75" d="M1176.77 862.54c.71 0 1.29-.58 1.29-1.29 0-.71-.58-1.29-1.29-1.29-.71 0-1.29.58-1.29 1.29 0 .71.58 1.29 1.29 1.29z" fill="#79B8FF"></path><path opacity=".75" d="M1185.77 861.25c0-.71-.58-1.29-1.29-1.29-.71 0-1.29.58-1.29 1.29 0 .71.58 1.29 1.29 1.29.71 0 1.29-.58 1.29-1.29z" fill="#79B8FF"></path><path opacity=".75" d="M1192.2 862.54c.71 0 1.29-.578 1.29-1.29 0-.712-.58-1.29-1.29-1.29-.71 0-1.29.578-1.29 1.29 0 .712.58 1.29 1.29 1.29z" fill="#79B8FF"></path><path opacity=".75" d="M1153.29 870.61c.71 0 1.29-.58 1.29-1.29 0-.71-.58-1.29-1.29-1.29-.71 0-1.29.58-1.29 1.29 0 .71.58 1.29 1.29 1.29z" fill="#79B8FF"></path><path opacity=".75" d="M1161.33 870.28a1.291 1.291 0 000-2.58 1.291 1.291 0 000 2.58z" fill="#79B8FF"></path><path opacity=".75" d="M1169.05 870.28a1.291 1.291 0 000-2.58 1.291 1.291 0 000 2.58z" fill="#79B8FF"></path><path opacity=".75" d="M1176.77 870.28c.71 0 1.29-.58 1.29-1.29 0-.71-.58-1.29-1.29-1.29-.71 0-1.29.58-1.29 1.29 0 .71.58 1.29 1.29 1.29z" fill="#79B8FF"></path><path opacity=".75" d="M1184.48 870.28c.71 0 1.29-.58 1.29-1.29 0-.71-.58-1.29-1.29-1.29-.71 0-1.29.58-1.29 1.29a1.3 1.3 0 001.29 1.29z" fill="#79B8FF"></path><path opacity=".75" d="M1192.2 870.28a1.291 1.291 0 000-2.58 1.291 1.291 0 000 2.58z" fill="#79B8FF"></path><path opacity=".75" d="M1198.84 877.01c0 .71.58 1.29 1.29 1.29.71 0 1.29-.58 1.29-1.29 0-.71-.58-1.29-1.29-1.29-.71 0-1.29.58-1.29 1.29z" fill="#79B8FF"></path><path opacity=".75" d="M1207.85 875.72c-.71 0-1.29.58-1.29 1.29 0 .71.58 1.29 1.29 1.29.71 0 1.29-.58 1.29-1.29a1.3 1.3 0 00-1.29-1.29z" fill="#79B8FF"></path><path opacity=".75" d="M1215.56 875.72c-.71 0-1.29.58-1.29 1.29 0 .71.58 1.29 1.29 1.29.71 0 1.29-.58 1.29-1.29 0-.71-.58-1.29-1.29-1.29z" fill="#79B8FF"></path><path opacity=".75" d="M1223.28 875.72c-.71 0-1.29.58-1.29 1.29 0 .71.58 1.29 1.29 1.29.71 0 1.29-.58 1.29-1.29 0-.71-.58-1.29-1.29-1.29z" fill="#79B8FF"></path><path opacity=".75" d="M1231 875.72c-.71 0-1.29.58-1.29 1.29 0 .71.58 1.29 1.29 1.29.71 0 1.29-.58 1.29-1.29a1.3 1.3 0 00-1.29-1.29z" fill="#79B8FF"></path><path opacity=".75" d="M1238.71 875.72c-.71 0-1.29.58-1.29 1.29 0 .71.58 1.29 1.29 1.29.71 0 1.29-.58 1.29-1.29 0-.71-.58-1.29-1.29-1.29z" fill="#79B8FF"></path><path opacity=".75" d="M1198.84 884.75c0 .71.58 1.29 1.29 1.29.71 0 1.29-.58 1.29-1.29 0-.71-.58-1.29-1.29-1.29-.71 0-1.29.58-1.29 1.29z" fill="#79B8FF"></path><path opacity=".75" d="M1206.56 884.75c0 .71.58 1.29 1.29 1.29.71 0 1.29-.58 1.29-1.29 0-.71-.58-1.29-1.29-1.29-.71 0-1.29.58-1.29 1.29z" fill="#79B8FF"></path><path opacity=".75" d="M1215.56 883.46c-.71 0-1.29.58-1.29 1.29 0 .71.58 1.29 1.29 1.29.71 0 1.29-.58 1.29-1.29 0-.71-.58-1.29-1.29-1.29z" fill="#79B8FF"></path><path opacity=".75" d="M1223.28 883.46c-.71 0-1.29.58-1.29 1.29 0 .71.58 1.29 1.29 1.29.71 0 1.29-.58 1.29-1.29 0-.71-.58-1.29-1.29-1.29z" fill="#79B8FF"></path><path opacity=".75" d="M1231 883.46c-.71 0-1.29.58-1.29 1.29 0 .71.58 1.29 1.29 1.29.71 0 1.29-.58 1.29-1.29a1.3 1.3 0 00-1.29-1.29z" fill="#79B8FF"></path><path opacity=".75" d="M1238.71 883.46c-.71 0-1.29.58-1.29 1.29 0 .71.58 1.29 1.29 1.29.71 0 1.29-.58 1.29-1.29 0-.71-.58-1.29-1.29-1.29z" fill="#79B8FF"></path><path opacity=".75" d="M1198.84 892.49c0 .71.58 1.29 1.29 1.29.71 0 1.29-.58 1.29-1.29 0-.71-.58-1.29-1.29-1.29-.71 0-1.29.58-1.29 1.29z" fill="#79B8FF"></path><path opacity=".75" d="M1206.56 892.49c0 .71.58 1.29 1.29 1.29.71 0 1.29-.58 1.29-1.29 0-.71-.58-1.29-1.29-1.29-.71 0-1.29.58-1.29 1.29z" fill="#79B8FF"></path><path opacity=".75" d="M1214.28 892.49c0 .71.58 1.29 1.29 1.29.71 0 1.29-.58 1.29-1.29 0-.71-.58-1.29-1.29-1.29-.72 0-1.29.58-1.29 1.29z" fill="#79B8FF"></path><path opacity=".75" d="M1223.28 891.2c-.71 0-1.29.58-1.29 1.29 0 .71.58 1.29 1.29 1.29.71 0 1.29-.58 1.29-1.29 0-.71-.58-1.29-1.29-1.29z" fill="#79B8FF"></path><path opacity=".75" d="M1231 891.2c-.71 0-1.29.58-1.29 1.29 0 .71.58 1.29 1.29 1.29.71 0 1.29-.58 1.29-1.29 0-.71-.58-1.29-1.29-1.29z" fill="#79B8FF"></path><path opacity=".75" d="M1238.71 891.2c-.71 0-1.29.58-1.29 1.29 0 .71.58 1.29 1.29 1.29.71 0 1.29-.58 1.29-1.29 0-.71-.58-1.29-1.29-1.29z" fill="#79B8FF"></path><path opacity=".75" d="M1198.84 900.23c0 .71.58 1.29 1.29 1.29.71 0 1.29-.58 1.29-1.29 0-.71-.58-1.29-1.29-1.29-.71 0-1.29.58-1.29 1.29z" fill="#79B8FF"></path><path opacity=".75" d="M1206.56 900.23c0 .71.58 1.29 1.29 1.29.71 0 1.29-.58 1.29-1.29 0-.71-.58-1.29-1.29-1.29-.71 0-1.29.58-1.29 1.29z" fill="#79B8FF"></path><path opacity=".75" d="M1214.28 900.23c0 .71.58 1.29 1.29 1.29.71 0 1.29-.58 1.29-1.29 0-.71-.58-1.29-1.29-1.29-.72 0-1.29.58-1.29 1.29z" fill="#79B8FF"></path><path opacity=".75" d="M1221.99 900.23c0 .71.58 1.29 1.29 1.29.71 0 1.29-.58 1.29-1.29 0-.71-.58-1.29-1.29-1.29-.71 0-1.29.58-1.29 1.29z" fill="#79B8FF"></path><path opacity=".75" d="M1231 898.94c-.71 0-1.29.58-1.29 1.29 0 .71.58 1.29 1.29 1.29.71 0 1.29-.58 1.29-1.29a1.3 1.3 0 00-1.29-1.29z" fill="#79B8FF"></path><path opacity=".75" d="M1238.71 898.94c-.71 0-1.29.58-1.29 1.29 0 .71.58 1.29 1.29 1.29.71 0 1.29-.58 1.29-1.29 0-.71-.58-1.29-1.29-1.29z" fill="#79B8FF"></path><path opacity=".75" d="M1198.84 907.97c0 .71.58 1.29 1.29 1.29.71 0 1.29-.58 1.29-1.29 0-.71-.58-1.29-1.29-1.29-.71 0-1.29.58-1.29 1.29z" fill="#79B8FF"></path><path opacity=".75" d="M1206.56 907.97c0 .71.58 1.29 1.29 1.29.71 0 1.29-.58 1.29-1.29 0-.71-.58-1.29-1.29-1.29-.71 0-1.29.58-1.29 1.29z" fill="#79B8FF"></path><path opacity=".75" d="M1214.28 907.97c0 .71.58 1.29 1.29 1.29.71 0 1.29-.58 1.29-1.29 0-.71-.58-1.29-1.29-1.29-.72 0-1.29.58-1.29 1.29z" fill="#79B8FF"></path><path opacity=".75" d="M1221.99 907.97c0 .71.58 1.29 1.29 1.29.71 0 1.29-.58 1.29-1.29 0-.71-.58-1.29-1.29-1.29-.71 0-1.29.58-1.29 1.29z" fill="#79B8FF"></path><path opacity=".75" d="M1229.71 907.97c0 .71.58 1.29 1.29 1.29.71 0 1.29-.58 1.29-1.29 0-.71-.58-1.29-1.29-1.29-.71 0-1.29.58-1.29 1.29z" fill="#79B8FF"></path><path opacity=".75" d="M1238.71 906.68c-.71 0-1.29.58-1.29 1.29 0 .71.58 1.29 1.29 1.29.71 0 1.29-.58 1.29-1.29 0-.71-.58-1.29-1.29-1.29z" fill="#79B8FF"></path><path opacity=".75" d="M1200.13 914.42c-.71 0-1.29.58-1.29 1.29 0 .71.58 1.29 1.29 1.29.71 0 1.29-.58 1.29-1.29 0-.71-.58-1.29-1.29-1.29z" fill="#79B8FF"></path><path opacity=".75" d="M1207.85 914.42c-.71 0-1.29.58-1.29 1.29 0 .71.58 1.29 1.29 1.29.71 0 1.29-.58 1.29-1.29a1.3 1.3 0 00-1.29-1.29z" fill="#79B8FF"></path><path opacity=".75" d="M1215.56 914.42c-.71 0-1.29.58-1.29 1.29 0 .71.58 1.29 1.29 1.29.71 0 1.29-.58 1.29-1.29 0-.71-.58-1.29-1.29-1.29z" fill="#79B8FF"></path><path opacity=".75" d="M1223.28 914.42c-.71 0-1.29.58-1.29 1.29 0 .71.58 1.29 1.29 1.29.71 0 1.29-.58 1.29-1.29 0-.71-.58-1.29-1.29-1.29z" fill="#79B8FF"></path><path opacity=".75" d="M1231 914.42c-.71 0-1.29.58-1.29 1.29 0 .71.58 1.29 1.29 1.29.71 0 1.29-.58 1.29-1.29a1.3 1.3 0 00-1.29-1.29z" fill="#79B8FF"></path><path opacity=".75" d="M1238.71 914.42c-.71 0-1.29.58-1.29 1.29 0 .71.58 1.29 1.29 1.29.71 0 1.29-.58 1.29-1.29 0-.71-.58-1.29-1.29-1.29z" fill="#79B8FF"></path><path opacity=".75" d="M1200.13 831.58c.71 0 1.29-.578 1.29-1.29 0-.712-.58-1.29-1.29-1.29-.71 0-1.29.578-1.29 1.29 0 .712.58 1.29 1.29 1.29z" fill="#79B8FF"></path><path opacity=".75" d="M1207.85 831.58c.71 0 1.29-.58 1.29-1.29 0-.71-.58-1.29-1.29-1.29-.71 0-1.29.58-1.29 1.29 0 .71.58 1.29 1.29 1.29z" fill="#79B8FF"></path><path opacity=".75" d="M1215.56 831.58c.71 0 1.29-.58 1.29-1.29 0-.71-.58-1.29-1.29-1.29-.71 0-1.29.58-1.29 1.29a1.3 1.3 0 001.29 1.29z" fill="#79B8FF"></path><path opacity=".75" d="M1223.28 831.58c.71 0 1.29-.578 1.29-1.29 0-.712-.58-1.29-1.29-1.29-.71 0-1.29.578-1.29 1.29 0 .712.58 1.29 1.29 1.29z" fill="#79B8FF"></path><path opacity=".75" d="M1231 831.58c.71 0 1.29-.58 1.29-1.29A1.3 1.3 0 001231 829c-.71 0-1.29.58-1.29 1.29 0 .71.58 1.29 1.29 1.29z" fill="#79B8FF"></path><path opacity=".75" d="M1238.71 831.58c.71 0 1.29-.578 1.29-1.29 0-.712-.58-1.29-1.29-1.29-.71 0-1.29.578-1.29 1.29 0 .712.58 1.29 1.29 1.29z" fill="#79B8FF"></path><path opacity=".75" d="M1201.42 838.03c0-.71-.58-1.29-1.29-1.29-.71 0-1.29.58-1.29 1.29 0 .71.58 1.29 1.29 1.29.71 0 1.29-.58 1.29-1.29z" fill="#79B8FF"></path><path opacity=".75" d="M1209.13 838.03c0-.71-.58-1.29-1.29-1.29-.71 0-1.29.58-1.29 1.29 0 .71.58 1.29 1.29 1.29.72 0 1.29-.58 1.29-1.29z" fill="#79B8FF"></path><path opacity=".75" d="M1216.85 838.03c0-.71-.58-1.29-1.29-1.29-.71 0-1.29.58-1.29 1.29 0 .71.58 1.29 1.29 1.29.71 0 1.29-.58 1.29-1.29z" fill="#79B8FF"></path><path opacity=".75" d="M1224.57 838.03c0-.71-.58-1.29-1.29-1.29-.71 0-1.29.58-1.29 1.29 0 .71.58 1.29 1.29 1.29.71 0 1.29-.58 1.29-1.29z" fill="#79B8FF"></path><path opacity=".75" d="M1231 836.74c-.71 0-1.29.58-1.29 1.29 0 .71.58 1.29 1.29 1.29.71 0 1.29-.58 1.29-1.29a1.3 1.3 0 00-1.29-1.29z" fill="#79B8FF"></path><path opacity=".75" d="M1238.71 836.74c-.71 0-1.29.58-1.29 1.29 0 .71.58 1.29 1.29 1.29.71 0 1.29-.58 1.29-1.29 0-.71-.58-1.29-1.29-1.29z" fill="#79B8FF"></path><path opacity=".75" d="M1200.13 847.06c.71 0 1.29-.578 1.29-1.29 0-.712-.58-1.29-1.29-1.29-.71 0-1.29.578-1.29 1.29 0 .712.58 1.29 1.29 1.29z" fill="#79B8FF"></path><path opacity=".75" d="M1209.13 845.77c0-.71-.58-1.29-1.29-1.29-.71 0-1.29.58-1.29 1.29 0 .71.58 1.29 1.29 1.29.72 0 1.29-.58 1.29-1.29z" fill="#79B8FF"></path><path opacity=".75" d="M1216.85 845.77c0-.71-.58-1.29-1.29-1.29-.71 0-1.29.58-1.29 1.29 0 .71.58 1.29 1.29 1.29.71 0 1.29-.58 1.29-1.29z" fill="#79B8FF"></path><path opacity=".75" d="M1223.28 847.06c.71 0 1.29-.578 1.29-1.29 0-.712-.58-1.29-1.29-1.29-.71 0-1.29.578-1.29 1.29 0 .712.58 1.29 1.29 1.29z" fill="#79B8FF"></path><path opacity=".75" d="M1231 844.48c-.71 0-1.29.58-1.29 1.29 0 .71.58 1.29 1.29 1.29.71 0 1.29-.58 1.29-1.29 0-.71-.58-1.29-1.29-1.29z" fill="#79B8FF"></path><path opacity=".75" d="M1238.71 847.06c.71 0 1.29-.578 1.29-1.29 0-.712-.58-1.29-1.29-1.29-.71 0-1.29.578-1.29 1.29 0 .712.58 1.29 1.29 1.29z" fill="#79B8FF"></path><path opacity=".75" d="M1201.42 853.51c0-.71-.58-1.29-1.29-1.29-.71 0-1.29.58-1.29 1.29 0 .71.58 1.29 1.29 1.29.71 0 1.29-.58 1.29-1.29z" fill="#79B8FF"></path><path opacity=".75" d="M1209.13 853.51c0-.71-.58-1.29-1.29-1.29-.71 0-1.29.58-1.29 1.29 0 .71.58 1.29 1.29 1.29.72 0 1.29-.58 1.29-1.29z" fill="#79B8FF"></path><path opacity=".75" d="M1215.56 852.22c-.71 0-1.29.58-1.29 1.29 0 .71.58 1.29 1.29 1.29.71 0 1.29-.58 1.29-1.29 0-.71-.58-1.29-1.29-1.29z" fill="#79B8FF"></path><path opacity=".75" d="M1223.28 852.22c-.71 0-1.29.58-1.29 1.29 0 .71.58 1.29 1.29 1.29.71 0 1.29-.58 1.29-1.29 0-.71-.58-1.29-1.29-1.29z" fill="#79B8FF"></path><path opacity=".75" d="M1231 852.22c-.71 0-1.29.58-1.29 1.29 0 .71.58 1.29 1.29 1.29.71 0 1.29-.58 1.29-1.29a1.3 1.3 0 00-1.29-1.29z" fill="#79B8FF"></path><path opacity=".75" d="M1238.71 852.22c-.71 0-1.29.58-1.29 1.29 0 .71.58 1.29 1.29 1.29.71 0 1.29-.58 1.29-1.29 0-.71-.58-1.29-1.29-1.29z" fill="#79B8FF"></path><path opacity=".75" d="M1200.13 862.54c.71 0 1.29-.578 1.29-1.29 0-.712-.58-1.29-1.29-1.29-.71 0-1.29.578-1.29 1.29 0 .712.58 1.29 1.29 1.29z" fill="#79B8FF"></path><path opacity=".75" d="M1207.85 859.96c-.71 0-1.29.58-1.29 1.29 0 .71.58 1.29 1.29 1.29.71 0 1.29-.58 1.29-1.29a1.3 1.3 0 00-1.29-1.29z" fill="#79B8FF"></path><path opacity=".75" d="M1215.56 859.96c-.71 0-1.29.58-1.29 1.29 0 .71.58 1.29 1.29 1.29.71 0 1.29-.58 1.29-1.29 0-.71-.58-1.29-1.29-1.29z" fill="#79B8FF"></path><path opacity=".75" d="M1223.28 862.54c.71 0 1.29-.578 1.29-1.29 0-.712-.58-1.29-1.29-1.29-.71 0-1.29.578-1.29 1.29 0 .712.58 1.29 1.29 1.29z" fill="#79B8FF"></path><path opacity=".75" d="M1231 859.96c-.71 0-1.29.58-1.29 1.29 0 .71.58 1.29 1.29 1.29.71 0 1.29-.58 1.29-1.29a1.3 1.3 0 00-1.29-1.29z" fill="#79B8FF"></path><path opacity=".75" d="M1238.71 862.54c.71 0 1.29-.578 1.29-1.29 0-.712-.58-1.29-1.29-1.29-.71 0-1.29.578-1.29 1.29 0 .712.58 1.29 1.29 1.29z" fill="#79B8FF"></path><path opacity=".75" d="M1200.13 870.28a1.291 1.291 0 000-2.58 1.291 1.291 0 000 2.58z" fill="#79B8FF"></path><path opacity=".75" d="M1207.85 867.7c-.71 0-1.29.58-1.29 1.29 0 .71.58 1.29 1.29 1.29.71 0 1.29-.58 1.29-1.29a1.3 1.3 0 00-1.29-1.29z" fill="#79B8FF"></path><path opacity=".75" d="M1215.56 867.7c-.71 0-1.29.58-1.29 1.29 0 .71.58 1.29 1.29 1.29.71 0 1.29-.58 1.29-1.29 0-.71-.58-1.29-1.29-1.29z" fill="#79B8FF"></path><path opacity=".75" d="M1223.28 870.28a1.291 1.291 0 000-2.58 1.291 1.291 0 000 2.58z" fill="#79B8FF"></path><path opacity=".75" d="M1231 867.7c-.71 0-1.29.58-1.29 1.29 0 .71.58 1.29 1.29 1.29.71 0 1.29-.58 1.29-1.29a1.3 1.3 0 00-1.29-1.29z" fill="#79B8FF"></path><path opacity=".75" d="M1238.71 870.28a1.291 1.291 0 000-2.58 1.291 1.291 0 000 2.58z" fill="#79B8FF"></path></g><g filter="url(#filter7_d)" class="actions-hero-card-2"><mask id="mask2" mask-type="alpha" maskUnits="userSpaceOnUse" x="281" y="687" width="422" height="340"><path d="M703 687H281v340h422V687z" fill="#fff"></path><path fill-rule="evenodd" clip-rule="evenodd" d="M478 702H288a6 6 0 00-6 6v298c0 3.31 2.686 6 6 6h190c0 7.73 6.268 14 14 14s14-6.27 14-14h190c3.314 0 6-2.69 6-6V708a6 6 0 00-6-6H506c0-7.732-6.268-14-14-14s-14 6.268-14 14zm14 6a7 7 0 100-14 7 7 0 000 14zm7 304c0 3.87-3.134 7-7 7s-7-3.13-7-7 3.134-7 7-7 7 3.13 7 7z" fill="#000"></path></mask><g mask="url(#mask2)"><path fill-rule="evenodd" clip-rule="evenodd" d="M478 702H288a6 6 0 00-6 6v298c0 3.31 2.686 6 6 6h190c0 7.73 6.268 14 14 14s14-6.27 14-14h190c3.314 0 6-2.69 6-6V708a6 6 0 00-6-6H506c0-7.732-6.268-14-14-14s-14 6.268-14 14zm14 6a7 7 0 100-14 7 7 0 000 14zm7 304c0 3.87-3.134 7-7 7s-7-3.13-7-7 3.134-7 7-7 7 3.13 7 7z" fill="#fff"></path><path d="M478 702v1h1v-1h-1zm0 310h1v-1h-1v1zm28 0v-1h-1v1h1zm0-310h-1v1h1v-1zm-218 1h190v-2H288v2zm-5 5a5 5 0 015-5v-2a7 7 0 00-7 7h2zm0 298V708h-2v298h2zm5 5c-2.761 0-5-2.24-5-5h-2c0 3.87 3.134 7 7 7v-2zm190 0H288v2h190v-2zm14 14c-7.18 0-13-5.82-13-13h-2c0 8.28 6.716 15 15 15v-2zm13-13c0 7.18-5.82 13-13 13v2c8.284 0 15-6.72 15-15h-2zm191-1H506v2h190v-2zm5-5c0 2.76-2.239 5-5 5v2c3.866 0 7-3.13 7-7h-2zm0-298v298h2V708h-2zm-5-5a5 5 0 015 5h2a7 7 0 00-7-7v2zm-190 0h190v-2H506v2zm-14-14c7.18 0 13 5.82 13 13h2c0-8.284-6.716-15-15-15v2zm-13 13c0-7.18 5.82-13 13-13v-2c-8.284 0-15 6.716-15 15h2zm19-1a6 6 0 01-6 6v2a8 8 0 008-8h-2zm-6-6a6 6 0 016 6h2a8 8 0 00-8-8v2zm-6 6a6 6 0 016-6v-2a8 8 0 00-8 8h2zm6 6a6 6 0 01-6-6h-2a8 8 0 008 8v-2zm0 313a8 8 0 008-8h-2c0 3.31-2.686 6-6 6v2zm-8-8a8 8 0 008 8v-2c-3.314 0-6-2.69-6-6h-2zm8-8a8 8 0 00-8 8h2c0-3.31 2.686-6 6-6v-2zm8 8a8 8 0 00-8-8v2c3.314 0 6 2.69 6 6h2z" fill="#1B1F23" fill-opacity=".05"></path><path d="M282 962h420" stroke="#EAECEF" stroke-miterlimit="10"></path><path d="M282 792h420" stroke="#EAECEF" stroke-miterlimit="10"></path><g filter="url(#filter8_i)"><path d="M648.999 776c16.015 0 28.998-12.984 28.998-29s-12.983-29-28.998-29C632.983 718 620 730.984 620 747s12.983 29 28.999 29z" fill="#fff"></path></g><path d="M677.497 747c0 15.74-12.759 28.5-28.498 28.5-15.74 0-28.499-12.76-28.499-28.5s12.759-28.5 28.499-28.5c15.739 0 28.498 12.76 28.498 28.5z" stroke="#1B1F23" stroke-opacity=".02"></path></g><path d="M314 738h193m-193 20h103" stroke="#E1E4E8" stroke-opacity=".7" stroke-width="5" stroke-linecap="round"></path></g><g filter="url(#filter9_d)" class="actions-hero-subcard"><path opacity=".8" d="M52.026 939h365.948c5.534 0 10.026-4.317 10.026-9.636v-86.728c0-5.319-4.492-9.636-10.026-9.636H52.026C46.492 833 42 837.317 42 842.636v86.728c0 5.319 4.492 9.636 10.026 9.636z" fill="#fff"></path><path opacity=".8" d="M52.026 939.5h365.948c5.792 0 10.526-4.522 10.526-10.136v-86.728c0-5.614-4.734-10.136-10.526-10.136H52.026c-5.792 0-10.526 4.522-10.526 10.136v86.728c0 5.614 4.734 10.136 10.526 10.136z" stroke="#1B1F23" stroke-opacity=".05"></path><path d="M375 915c16.016 0 29-12.984 29-29s-12.984-29-29-29-29 12.984-29 29 12.984 29 29 29z" fill="#EA4A5A"></path><path d="M403.5 886c0 15.74-12.76 28.5-28.5 28.5s-28.5-12.76-28.5-28.5 12.76-28.5 28.5-28.5 28.5 12.76 28.5 28.5z" stroke="#1B1F23" stroke-opacity=".02"></path><path d="M383 878l-16 16" stroke="#fff" stroke-width="2" stroke-linecap="round" stroke-linejoin="round"></path><path d="M367 878l16 16" stroke="#fff" stroke-width="2" stroke-linecap="round" stroke-linejoin="round"></path></g><g filter="url(#filter10_d)" class="actions-hero-card-1"><mask id="mask3" mask-type="alpha" maskUnits="userSpaceOnUse" x="521" y="277" width="422" height="340"><path d="M943 277H521v340h422V277z" fill="#fff"></path><path fill-rule="evenodd" clip-rule="evenodd" d="M718 292H528a6 6 0 00-6 6v298a6 6 0 006 6h190c0 7.732 6.268 14 14 14s14-6.268 14-14h190a6 6 0 006-6V298a6 6 0 00-6-6H746c0-7.732-6.268-14-14-14s-14 6.268-14 14zm14 6a7 7 0 100-14 7 7 0 000 14zm7 304a7 7 0 11-14 0 7 7 0 0114 0z" fill="#000"></path></mask><g mask="url(#mask3)"><path fill-rule="evenodd" clip-rule="evenodd" d="M718 292H528a6 6 0 00-6 6v298a6 6 0 006 6h190c0 7.732 6.268 14 14 14s14-6.268 14-14h190a6 6 0 006-6V298a6 6 0 00-6-6H746c0-7.732-6.268-14-14-14s-14 6.268-14 14zm14 6a7 7 0 100-14 7 7 0 000 14zm7 304a7 7 0 11-14 0 7 7 0 0114 0z" fill="#fff"></path><path d="M718 292v1h1v-1h-1zm0 310h1v-1h-1v1zm28 0v-1h-1v1h1zm0-310h-1v1h1v-1zm-218 1h190v-2H528v2zm-5 5a5 5 0 015-5v-2a7 7 0 00-7 7h2zm0 298V298h-2v298h2zm5 5a5 5 0 01-5-5h-2a7 7 0 007 7v-2zm190 0H528v2h190v-2zm14 14c-7.18 0-13-5.82-13-13h-2c0 8.284 6.716 15 15 15v-2zm13-13c0 7.18-5.82 13-13 13v2c8.284 0 15-6.716 15-15h-2zm191-1H746v2h190v-2zm5-5a5 5 0 01-5 5v2a7 7 0 007-7h-2zm0-298v298h2V298h-2zm-5-5a5 5 0 015 5h2a7 7 0 00-7-7v2zm-190 0h190v-2H746v2zm-14-14c7.18 0 13 5.82 13 13h2c0-8.284-6.716-15-15-15v2zm-13 13c0-7.18 5.82-13 13-13v-2c-8.284 0-15 6.716-15 15h2zm19-1a6 6 0 01-6 6v2a8 8 0 008-8h-2zm-6-6a6 6 0 016 6h2a8 8 0 00-8-8v2zm-6 6a6 6 0 016-6v-2a8 8 0 00-8 8h2zm6 6a6 6 0 01-6-6h-2a8 8 0 008 8v-2zm0 313a8 8 0 008-8h-2a6 6 0 01-6 6v2zm-8-8a8 8 0 008 8v-2a6 6 0 01-6-6h-2zm8-8a8 8 0 00-8 8h2a6 6 0 016-6v-2zm8 8a8 8 0 00-8-8v2a6 6 0 016 6h2z" fill="#1B1F23" fill-opacity=".05"></path><path d="M522 552h420" stroke="#EAECEF" stroke-miterlimit="10"></path><path d="M522 382h420" stroke="#EAECEF" stroke-miterlimit="10"></path><g filter="url(#filter11_i)"><path d="M888.999 366c16.015 0 28.998-12.984 28.998-29s-12.983-29-28.998-29C872.983 308 860 320.984 860 337s12.983 29 28.999 29z" fill="#fff"></path></g><path d="M917.497 337c0 15.74-12.759 28.5-28.498 28.5-15.74 0-28.499-12.76-28.499-28.5s12.759-28.5 28.499-28.5c15.739 0 28.498 12.76 28.498 28.5z" stroke="#1B1F23" stroke-opacity=".02"></path></g><path xmlns="http://www.w3.org/2000/svg" d="M553 327h193m-193 20h103" stroke="#E1E4E8" stroke-opacity=".7" stroke-width="5" stroke-linecap="round"></path></g><g opacity=".75" class="actions-hero-flourish"><g opacity=".85" filter="url(#filter12_d)"><path opacity=".85" d="M564 562.95h-78c-2.76 0-5-2.24-5-5v-78c0-2.76 2.24-5 5-5h78c2.76 0 5 2.24 5 5v78c0 2.76-2.24 5-5 5z" fill="#fff"></path><path opacity=".85" d="M486 563.45h78c3.036 0 5.5-2.464 5.5-5.5v-78c0-3.036-2.464-5.5-5.5-5.5h-78a5.502 5.502 0 00-5.5 5.5v78c0 3.036 2.464 5.5 5.5 5.5z" stroke="#1B1F23" stroke-opacity=".05"></path></g><path opacity=".75" d="M452.29 504.63c.71 0 1.29-.58 1.29-1.29 0-.71-.58-1.29-1.29-1.29-.71 0-1.29.58-1.29 1.29 0 .71.58 1.29 1.29 1.29z" fill="#79B8FF"></path><path opacity=".75" d="M460.329 504.3c.71 0 1.29-.58 1.29-1.29 0-.71-.58-1.29-1.29-1.29-.71 0-1.29.58-1.29 1.29 0 .71.58 1.29 1.29 1.29z" fill="#79B8FF"></path><path opacity=".75" d="M468.05 504.3c.71 0 1.29-.58 1.29-1.29 0-.71-.58-1.29-1.29-1.29-.71 0-1.29.58-1.29 1.29 0 .71.58 1.29 1.29 1.29z" fill="#79B8FF"></path><path opacity=".75" d="M475.77 504.3c.71 0 1.29-.58 1.29-1.29 0-.71-.58-1.29-1.29-1.29-.71 0-1.29.58-1.29 1.29 0 .71.58 1.29 1.29 1.29z" fill="#79B8FF"></path><path opacity=".75" d="M483.479 504.3c.71 0 1.29-.58 1.29-1.29 0-.71-.58-1.29-1.29-1.29-.71 0-1.29.58-1.29 1.29a1.3 1.3 0 001.29 1.29z" fill="#79B8FF"></path><path opacity=".75" d="M489.91 503.01c0 .71.58 1.29 1.29 1.29.71 0 1.29-.58 1.29-1.29 0-.71-.58-1.29-1.29-1.29-.71 0-1.29.58-1.29 1.29z" fill="#79B8FF"></path><path opacity=".75" d="M452.29 512.37c.71 0 1.29-.58 1.29-1.29 0-.71-.58-1.29-1.29-1.29-.71 0-1.29.58-1.29 1.29 0 .71.58 1.29 1.29 1.29z" fill="#79B8FF"></path><path opacity=".75" d="M460.329 512.04c.71 0 1.29-.58 1.29-1.29 0-.71-.58-1.29-1.29-1.29-.71 0-1.29.58-1.29 1.29 0 .71.58 1.29 1.29 1.29z" fill="#79B8FF"></path><path opacity=".75" d="M468.05 512.04c.71 0 1.29-.58 1.29-1.29 0-.71-.58-1.29-1.29-1.29-.71 0-1.29.58-1.29 1.29 0 .71.58 1.29 1.29 1.29z" fill="#79B8FF"></path><path opacity=".75" d="M475.77 512.04c.71 0 1.29-.58 1.29-1.29 0-.71-.58-1.29-1.29-1.29-.71 0-1.29.58-1.29 1.29 0 .71.58 1.29 1.29 1.29z" fill="#79B8FF"></path><path opacity=".75" d="M482.199 510.75c0 .71.58 1.29 1.29 1.29.71 0 1.29-.58 1.29-1.29 0-.71-.58-1.29-1.29-1.29-.72 0-1.29.58-1.29 1.29z" fill="#79B8FF"></path><path opacity=".75" d="M489.91 510.75c0 .71.58 1.29 1.29 1.29.71 0 1.29-.58 1.29-1.29 0-.71-.58-1.29-1.29-1.29-.71 0-1.29.58-1.29 1.29z" fill="#79B8FF"></path><path opacity=".75" d="M452.29 520.11c.71 0 1.29-.58 1.29-1.29 0-.71-.58-1.29-1.29-1.29-.71 0-1.29.58-1.29 1.29 0 .71.58 1.29 1.29 1.29z" fill="#79B8FF"></path><path opacity=".75" d="M460.329 519.78c.71 0 1.29-.58 1.29-1.29 0-.71-.58-1.29-1.29-1.29-.71 0-1.29.58-1.29 1.29 0 .71.58 1.29 1.29 1.29z" fill="#79B8FF"></path><path opacity=".75" d="M468.05 519.78c.71 0 1.29-.58 1.29-1.29 0-.71-.58-1.29-1.29-1.29-.71 0-1.29.58-1.29 1.29 0 .71.58 1.29 1.29 1.29z" fill="#79B8FF"></path><path opacity=".75" d="M474.48 518.49c0 .71.58 1.29 1.29 1.29.71 0 1.29-.58 1.29-1.29 0-.71-.58-1.29-1.29-1.29-.71 0-1.29.58-1.29 1.29z" fill="#79B8FF"></path><path opacity=".75" d="M482.199 518.49c0 .71.58 1.29 1.29 1.29.71 0 1.29-.58 1.29-1.29 0-.71-.58-1.29-1.29-1.29-.72 0-1.29.58-1.29 1.29z" fill="#79B8FF"></path><path opacity=".75" d="M489.91 518.49c0 .71.58 1.29 1.29 1.29.71 0 1.29-.58 1.29-1.29 0-.71-.58-1.29-1.29-1.29-.71 0-1.29.58-1.29 1.29z" fill="#79B8FF"></path><path opacity=".75" d="M452.29 527.85c.71 0 1.29-.58 1.29-1.29 0-.71-.58-1.29-1.29-1.29-.71 0-1.29.58-1.29 1.29 0 .71.58 1.29 1.29 1.29z" fill="#79B8FF"></path><path opacity=".75" d="M460.329 527.52c.71 0 1.29-.58 1.29-1.29 0-.71-.58-1.29-1.29-1.29-.71 0-1.29.58-1.29 1.29 0 .71.58 1.29 1.29 1.29z" fill="#79B8FF"></path><path opacity=".75" d="M466.76 526.23c0 .71.58 1.29 1.29 1.29.71 0 1.29-.58 1.29-1.29 0-.71-.58-1.29-1.29-1.29-.71 0-1.29.58-1.29 1.29z" fill="#79B8FF"></path><path opacity=".75" d="M474.48 526.23c0 .71.58 1.29 1.29 1.29.71 0 1.29-.58 1.29-1.29 0-.71-.58-1.29-1.29-1.29-.71 0-1.29.58-1.29 1.29z" fill="#79B8FF"></path><path opacity=".75" d="M482.199 526.23c0 .71.58 1.29 1.29 1.29.71 0 1.29-.58 1.29-1.29 0-.71-.58-1.29-1.29-1.29-.72 0-1.29.58-1.29 1.29z" fill="#79B8FF"></path><path opacity=".75" d="M489.91 526.23c0 .71.58 1.29 1.29 1.29.71 0 1.29-.58 1.29-1.29 0-.71-.58-1.29-1.29-1.29-.71 0-1.29.58-1.29 1.29z" fill="#79B8FF"></path><path opacity=".75" d="M453.57 534.3c0-.71-.58-1.29-1.29-1.29a1.291 1.291 0 00.01 2.58c.71 0 1.28-.58 1.28-1.29z" fill="#79B8FF"></path><path opacity=".75" d="M459.039 533.97c0 .71.58 1.29 1.29 1.29.71 0 1.29-.58 1.29-1.29 0-.71-.58-1.29-1.29-1.29-.71 0-1.29.58-1.29 1.29z" fill="#79B8FF"></path><path opacity=".75" d="M466.76 533.97c0 .71.58 1.29 1.29 1.29.71 0 1.29-.58 1.29-1.29 0-.71-.58-1.29-1.29-1.29-.71 0-1.29.58-1.29 1.29z" fill="#79B8FF"></path><path opacity=".75" d="M474.48 533.97c0 .71.58 1.29 1.29 1.29.71 0 1.29-.58 1.29-1.29 0-.71-.58-1.29-1.29-1.29-.71 0-1.29.58-1.29 1.29z" fill="#79B8FF"></path><path opacity=".75" d="M482.199 533.97c0 .71.58 1.29 1.29 1.29.71 0 1.29-.58 1.29-1.29 0-.71-.58-1.29-1.29-1.29-.72 0-1.29.58-1.29 1.29z" fill="#79B8FF"></path><path opacity=".75" d="M489.91 533.97c0 .71.58 1.29 1.29 1.29.71 0 1.29-.58 1.29-1.29 0-.71-.58-1.29-1.29-1.29-.71 0-1.29.58-1.29 1.29z" fill="#79B8FF"></path><path opacity=".75" d="M451.33 541.71c0 .71.57 1.29 1.29 1.29.71 0 1.29-.58 1.29-1.29 0-.71-.58-1.29-1.29-1.29-.72 0-1.29.58-1.29 1.29z" fill="#79B8FF"></path><path opacity=".75" d="M460.329 540.42c-.71 0-1.29.58-1.29 1.29 0 .71.58 1.29 1.29 1.29.71 0 1.29-.58 1.29-1.29 0-.71-.58-1.29-1.29-1.29z" fill="#79B8FF"></path><path opacity=".75" d="M468.05 540.42c-.71 0-1.29.58-1.29 1.29 0 .71.58 1.29 1.29 1.29.71 0 1.29-.58 1.29-1.29 0-.71-.58-1.29-1.29-1.29z" fill="#79B8FF"></path><path opacity=".75" d="M475.77 540.42c-.71 0-1.29.58-1.29 1.29 0 .71.58 1.29 1.29 1.29.71 0 1.29-.58 1.29-1.29a1.3 1.3 0 00-1.29-1.29z" fill="#79B8FF"></path><path opacity=".75" d="M483.479 540.42c-.71 0-1.29.58-1.29 1.29 0 .71.58 1.29 1.29 1.29.71 0 1.29-.58 1.29-1.29 0-.71-.58-1.29-1.29-1.29z" fill="#79B8FF"></path><path opacity=".75" d="M491.2 540.42c-.71 0-1.29.58-1.29 1.29 0 .71.58 1.29 1.29 1.29.71 0 1.29-.58 1.29-1.29 0-.71-.58-1.29-1.29-1.29z" fill="#79B8FF"></path><path opacity=".75" d="M452.29 457.91c.71 0 1.29-.58 1.29-1.29 0-.71-.58-1.29-1.29-1.29-.71 0-1.29.58-1.29 1.29 0 .71.58 1.29 1.29 1.29z" fill="#79B8FF"></path><path opacity=".75" d="M460.001 457.91a1.29 1.29 0 100-2.58 1.29 1.29 0 000 2.58z" fill="#79B8FF"></path><path opacity=".75" d="M467.72 457.91a1.29 1.29 0 100-2.58 1.29 1.29 0 000 2.58z" fill="#79B8FF"></path><path opacity=".75" d="M475.44 457.91c.71 0 1.29-.58 1.29-1.29 0-.71-.58-1.29-1.29-1.29-.71 0-1.29.58-1.29 1.29 0 .71.58 1.29 1.29 1.29z" fill="#79B8FF"></path><path opacity=".75" d="M484.769 456.29c0-.71-.58-1.29-1.29-1.29-.71 0-1.29.58-1.29 1.29 0 .71.58 1.29 1.29 1.29.71 0 1.29-.58 1.29-1.29z" fill="#79B8FF"></path><path opacity=".75" d="M491.2 457.58a1.29 1.29 0 100-2.58 1.29 1.29 0 000 2.58z" fill="#79B8FF"></path><path opacity=".75" d="M452.29 465.65c.71 0 1.29-.58 1.29-1.29 0-.71-.58-1.29-1.29-1.29-.71 0-1.29.58-1.29 1.29 0 .71.58 1.29 1.29 1.29z" fill="#79B8FF"></path><path opacity=".75" d="M459.039 464.03c0 .71.58 1.29 1.29 1.29.71 0 1.29-.58 1.29-1.29 0-.71-.58-1.29-1.29-1.29-.71 0-1.29.58-1.29 1.29z" fill="#79B8FF"></path><path opacity=".75" d="M466.76 464.03c0 .71.58 1.29 1.29 1.29.71 0 1.29-.58 1.29-1.29 0-.71-.58-1.29-1.29-1.29-.71 0-1.29.58-1.29 1.29z" fill="#79B8FF"></path><path opacity=".75" d="M474.48 464.03c0 .71.58 1.29 1.29 1.29.71 0 1.29-.58 1.29-1.29 0-.71-.58-1.29-1.29-1.29-.71 0-1.29.58-1.29 1.29z" fill="#79B8FF"></path><path opacity=".75" d="M484.769 464.03c0-.71-.58-1.29-1.29-1.29-.71 0-1.29.58-1.29 1.29 0 .71.58 1.29 1.29 1.29.71 0 1.29-.58 1.29-1.29z" fill="#79B8FF"></path><path opacity=".75" d="M492.49 464.03c0-.71-.58-1.29-1.29-1.29-.71 0-1.29.58-1.29 1.29 0 .71.58 1.29 1.29 1.29.71 0 1.29-.58 1.29-1.29z" fill="#79B8FF"></path><path opacity=".75" d="M452.29 473.39c.71 0 1.29-.58 1.29-1.29 0-.71-.58-1.29-1.29-1.29-.71 0-1.29.58-1.29 1.29 0 .71.58 1.29 1.29 1.29z" fill="#79B8FF"></path><path opacity=".75" d="M460.329 473.06a1.29 1.29 0 100-2.58 1.29 1.29 0 000 2.58z" fill="#79B8FF"></path><path opacity=".75" d="M468.05 473.06a1.29 1.29 0 10-.001-2.581 1.29 1.29 0 00.001 2.581z" fill="#79B8FF"></path><path opacity=".75" d="M477.051 471.77c0-.71-.58-1.29-1.29-1.29-.71 0-1.29.58-1.29 1.29 0 .71.58 1.29 1.29 1.29.72 0 1.29-.58 1.29-1.29z" fill="#79B8FF"></path><path opacity=".75" d="M484.769 471.77c0-.71-.58-1.29-1.29-1.29-.71 0-1.29.58-1.29 1.29 0 .71.58 1.29 1.29 1.29.71 0 1.29-.58 1.29-1.29z" fill="#79B8FF"></path><path opacity=".75" d="M491.2 473.06a1.29 1.29 0 100-2.58 1.29 1.29 0 000 2.58z" fill="#79B8FF"></path><path opacity=".75" d="M452.29 481.13c.71 0 1.29-.58 1.29-1.29 0-.71-.58-1.29-1.29-1.29-.71 0-1.29.58-1.29 1.29 0 .71.58 1.29 1.29 1.29z" fill="#79B8FF"></path><path opacity=".75" d="M460.329 480.8c.71 0 1.29-.58 1.29-1.29 0-.71-.58-1.29-1.29-1.29-.71 0-1.29.58-1.29 1.29 0 .71.58 1.29 1.29 1.29z" fill="#79B8FF"></path><path opacity=".75" d="M468.05 480.8c.71 0 1.29-.58 1.29-1.29 0-.71-.58-1.29-1.29-1.29-.71 0-1.29.58-1.29 1.29 0 .71.58 1.29 1.29 1.29z" fill="#79B8FF"></path><path opacity=".75" d="M477.051 479.51c0-.71-.58-1.29-1.29-1.29-.71 0-1.29.58-1.29 1.29 0 .71.58 1.29 1.29 1.29.72 0 1.29-.58 1.29-1.29z" fill="#79B8FF"></path><path opacity=".75" d="M484.769 479.51c0-.71-.58-1.29-1.29-1.29-.71 0-1.29.58-1.29 1.29 0 .71.58 1.29 1.29 1.29.71 0 1.29-.58 1.29-1.29z" fill="#79B8FF"></path><path opacity=".75" d="M492.49 479.51c0-.71-.58-1.29-1.29-1.29-.71 0-1.29.58-1.29 1.29 0 .71.58 1.29 1.29 1.29.71 0 1.29-.58 1.29-1.29z" fill="#79B8FF"></path><path opacity=".75" d="M452.29 488.87c.71 0 1.29-.58 1.29-1.29 0-.71-.58-1.29-1.29-1.29-.71 0-1.29.58-1.29 1.29 0 .71.58 1.29 1.29 1.29z" fill="#79B8FF"></path><path opacity=".75" d="M460.329 488.54a1.29 1.29 0 100-2.58 1.29 1.29 0 000 2.58z" fill="#79B8FF"></path><path opacity=".75" d="M468.05 488.54a1.29 1.29 0 10-.001-2.581 1.29 1.29 0 00.001 2.581z" fill="#79B8FF"></path><path opacity=".75" d="M475.77 488.54c.71 0 1.29-.58 1.29-1.29 0-.71-.58-1.29-1.29-1.29-.71 0-1.29.58-1.29 1.29 0 .71.58 1.29 1.29 1.29z" fill="#79B8FF"></path><path opacity=".75" d="M484.769 487.25c0-.71-.58-1.29-1.29-1.29-.71 0-1.29.58-1.29 1.29 0 .71.58 1.29 1.29 1.29.71 0 1.29-.58 1.29-1.29z" fill="#79B8FF"></path><path opacity=".75" d="M491.2 488.54a1.29 1.29 0 100-2.58 1.29 1.29 0 000 2.58z" fill="#79B8FF"></path><path opacity=".75" d="M452.29 496.61c.71 0 1.29-.58 1.29-1.29 0-.71-.58-1.29-1.29-1.29-.71 0-1.29.58-1.29 1.29 0 .71.58 1.29 1.29 1.29z" fill="#79B8FF"></path><path opacity=".75" d="M460.329 496.28a1.29 1.29 0 10.001-2.579 1.29 1.29 0 00-.001 2.579z" fill="#79B8FF"></path><path opacity=".75" d="M468.05 496.28a1.29 1.29 0 100-2.58 1.29 1.29 0 000 2.58z" fill="#79B8FF"></path><path opacity=".75" d="M475.77 496.28c.71 0 1.29-.58 1.29-1.29 0-.71-.58-1.29-1.29-1.29-.71 0-1.29.58-1.29 1.29 0 .71.58 1.29 1.29 1.29z" fill="#79B8FF"></path><path opacity=".75" d="M483.479 496.28c.71 0 1.29-.58 1.29-1.29 0-.71-.58-1.29-1.29-1.29-.71 0-1.29.58-1.29 1.29a1.3 1.3 0 001.29 1.29z" fill="#79B8FF"></path><path opacity=".75" d="M491.2 496.28a1.29 1.29 0 10.001-2.579 1.29 1.29 0 00-.001 2.579z" fill="#79B8FF"></path><path opacity=".75" d="M497.84 503.01c0 .71.58 1.29 1.29 1.29.71 0 1.29-.58 1.29-1.29 0-.71-.58-1.29-1.29-1.29-.71 0-1.29.58-1.29 1.29z" fill="#79B8FF"></path><path opacity=".75" d="M506.851 501.72c-.71 0-1.29.58-1.29 1.29 0 .71.58 1.29 1.29 1.29.71 0 1.29-.58 1.29-1.29a1.3 1.3 0 00-1.29-1.29z" fill="#79B8FF"></path><path opacity=".75" d="M514.56 501.72c-.71 0-1.29.58-1.29 1.29 0 .71.58 1.29 1.29 1.29.71 0 1.29-.58 1.29-1.29 0-.71-.58-1.29-1.29-1.29z" fill="#79B8FF"></path><path opacity=".75" d="M522.28 501.72c-.71 0-1.29.58-1.29 1.29 0 .71.58 1.29 1.29 1.29.71 0 1.29-.58 1.29-1.29 0-.71-.58-1.29-1.29-1.29z" fill="#79B8FF"></path><path opacity=".75" d="M530.001 501.72c-.71 0-1.29.58-1.29 1.29 0 .71.58 1.29 1.29 1.29.71 0 1.29-.58 1.29-1.29a1.3 1.3 0 00-1.29-1.29z" fill="#79B8FF"></path><path opacity=".75" d="M537.71 501.72c-.71 0-1.29.58-1.29 1.29 0 .71.58 1.29 1.29 1.29.71 0 1.29-.58 1.29-1.29 0-.71-.58-1.29-1.29-1.29z" fill="#79B8FF"></path><path opacity=".75" d="M497.84 510.75c0 .71.58 1.29 1.29 1.29.71 0 1.29-.58 1.29-1.29 0-.71-.58-1.29-1.29-1.29-.71 0-1.29.58-1.29 1.29z" fill="#79B8FF"></path><path opacity=".75" d="M505.561 510.75c0 .71.58 1.29 1.29 1.29.71 0 1.29-.58 1.29-1.29 0-.71-.58-1.29-1.29-1.29-.71 0-1.29.58-1.29 1.29z" fill="#79B8FF"></path><path opacity=".75" d="M514.56 509.46c-.71 0-1.29.58-1.29 1.29 0 .71.58 1.29 1.29 1.29.71 0 1.29-.58 1.29-1.29 0-.71-.58-1.29-1.29-1.29z" fill="#79B8FF"></path><path opacity=".75" d="M522.28 509.46c-.71 0-1.29.58-1.29 1.29 0 .71.58 1.29 1.29 1.29.71 0 1.29-.58 1.29-1.29 0-.71-.58-1.29-1.29-1.29z" fill="#79B8FF"></path><path opacity=".75" d="M530.001 509.46c-.71 0-1.29.58-1.29 1.29 0 .71.58 1.29 1.29 1.29.71 0 1.29-.58 1.29-1.29a1.3 1.3 0 00-1.29-1.29z" fill="#79B8FF"></path><path opacity=".75" d="M537.71 509.46c-.71 0-1.29.58-1.29 1.29 0 .71.58 1.29 1.29 1.29.71 0 1.29-.58 1.29-1.29 0-.71-.58-1.29-1.29-1.29z" fill="#79B8FF"></path><path opacity=".75" d="M497.84 518.49c0 .71.58 1.29 1.29 1.29.71 0 1.29-.58 1.29-1.29 0-.71-.58-1.29-1.29-1.29-.71 0-1.29.58-1.29 1.29z" fill="#79B8FF"></path><path opacity=".75" d="M505.561 518.49c0 .71.58 1.29 1.29 1.29.71 0 1.29-.58 1.29-1.29 0-.71-.58-1.29-1.29-1.29-.71 0-1.29.58-1.29 1.29z" fill="#79B8FF"></path><path opacity=".75" d="M513.279 518.49c0 .71.58 1.29 1.29 1.29.71 0 1.29-.58 1.29-1.29 0-.71-.58-1.29-1.29-1.29-.72 0-1.29.58-1.29 1.29z" fill="#79B8FF"></path><path opacity=".75" d="M522.28 517.2c-.71 0-1.29.58-1.29 1.29 0 .71.58 1.29 1.29 1.29.71 0 1.29-.58 1.29-1.29 0-.71-.58-1.29-1.29-1.29z" fill="#79B8FF"></path><path opacity=".75" d="M530.001 517.2c-.71 0-1.29.58-1.29 1.29 0 .71.58 1.29 1.29 1.29.71 0 1.29-.58 1.29-1.29 0-.71-.58-1.29-1.29-1.29z" fill="#79B8FF"></path><path opacity=".75" d="M537.71 517.2c-.71 0-1.29.58-1.29 1.29 0 .71.58 1.29 1.29 1.29.71 0 1.29-.58 1.29-1.29 0-.71-.58-1.29-1.29-1.29z" fill="#79B8FF"></path><path opacity=".75" d="M497.84 526.23c0 .71.58 1.29 1.29 1.29.71 0 1.29-.58 1.29-1.29 0-.71-.58-1.29-1.29-1.29-.71 0-1.29.58-1.29 1.29z" fill="#79B8FF"></path><path opacity=".75" d="M505.561 526.23c0 .71.58 1.29 1.29 1.29.71 0 1.29-.58 1.29-1.29 0-.71-.58-1.29-1.29-1.29-.71 0-1.29.58-1.29 1.29z" fill="#79B8FF"></path><path opacity=".75" d="M513.279 526.23c0 .71.58 1.29 1.29 1.29.71 0 1.29-.58 1.29-1.29 0-.71-.58-1.29-1.29-1.29-.72 0-1.29.58-1.29 1.29z" fill="#79B8FF"></path><path opacity=".75" d="M520.99 526.23c0 .71.58 1.29 1.29 1.29.71 0 1.29-.58 1.29-1.29 0-.71-.58-1.29-1.29-1.29-.71 0-1.29.58-1.29 1.29z" fill="#79B8FF"></path><path opacity=".75" d="M530.001 524.94c-.71 0-1.29.58-1.29 1.29 0 .71.58 1.29 1.29 1.29.71 0 1.29-.58 1.29-1.29a1.3 1.3 0 00-1.29-1.29z" fill="#79B8FF"></path><path opacity=".75" d="M537.71 524.94c-.71 0-1.29.58-1.29 1.29 0 .71.58 1.29 1.29 1.29.71 0 1.29-.58 1.29-1.29 0-.71-.58-1.29-1.29-1.29z" fill="#79B8FF"></path><path opacity=".75" d="M497.84 533.97c0 .71.58 1.29 1.29 1.29.71 0 1.29-.58 1.29-1.29 0-.71-.58-1.29-1.29-1.29-.71 0-1.29.58-1.29 1.29z" fill="#79B8FF"></path><path opacity=".75" d="M505.561 533.97c0 .71.58 1.29 1.29 1.29.71 0 1.29-.58 1.29-1.29 0-.71-.58-1.29-1.29-1.29-.71 0-1.29.58-1.29 1.29z" fill="#79B8FF"></path><path opacity=".75" d="M513.279 533.97c0 .71.58 1.29 1.29 1.29.71 0 1.29-.58 1.29-1.29 0-.71-.58-1.29-1.29-1.29-.72 0-1.29.58-1.29 1.29z" fill="#79B8FF"></path><path opacity=".75" d="M520.99 533.97c0 .71.58 1.29 1.29 1.29.71 0 1.29-.58 1.29-1.29 0-.71-.58-1.29-1.29-1.29-.71 0-1.29.58-1.29 1.29z" fill="#79B8FF"></path><path opacity=".75" d="M528.711 533.97c0 .71.58 1.29 1.29 1.29.71 0 1.29-.58 1.29-1.29 0-.71-.58-1.29-1.29-1.29-.71 0-1.29.58-1.29 1.29z" fill="#79B8FF"></path><path opacity=".75" d="M537.71 532.68c-.71 0-1.29.58-1.29 1.29 0 .71.58 1.29 1.29 1.29.71 0 1.29-.58 1.29-1.29 0-.71-.58-1.29-1.29-1.29z" fill="#79B8FF"></path><path opacity=".75" d="M499.13 540.42c-.71 0-1.29.58-1.29 1.29 0 .71.58 1.29 1.29 1.29.71 0 1.29-.58 1.29-1.29 0-.71-.58-1.29-1.29-1.29z" fill="#79B8FF"></path><path opacity=".75" d="M506.851 540.42c-.71 0-1.29.58-1.29 1.29 0 .71.58 1.29 1.29 1.29.71 0 1.29-.58 1.29-1.29a1.3 1.3 0 00-1.29-1.29z" fill="#79B8FF"></path><path opacity=".75" d="M514.56 540.42c-.71 0-1.29.58-1.29 1.29 0 .71.58 1.29 1.29 1.29.71 0 1.29-.58 1.29-1.29 0-.71-.58-1.29-1.29-1.29z" fill="#79B8FF"></path><path opacity=".75" d="M522.28 540.42c-.71 0-1.29.58-1.29 1.29 0 .71.58 1.29 1.29 1.29.71 0 1.29-.58 1.29-1.29 0-.71-.58-1.29-1.29-1.29z" fill="#79B8FF"></path><path opacity=".75" d="M530.001 540.42c-.71 0-1.29.58-1.29 1.29 0 .71.58 1.29 1.29 1.29.71 0 1.29-.58 1.29-1.29a1.3 1.3 0 00-1.29-1.29z" fill="#79B8FF"></path><path opacity=".75" d="M537.71 540.42c-.71 0-1.29.58-1.29 1.29 0 .71.58 1.29 1.29 1.29.71 0 1.29-.58 1.29-1.29 0-.71-.58-1.29-1.29-1.29z" fill="#79B8FF"></path><path opacity=".75" d="M499.13 457.58a1.29 1.29 0 10-.001-2.581 1.29 1.29 0 00.001 2.581z" fill="#79B8FF"></path><path opacity=".75" d="M506.851 457.58c.71 0 1.29-.58 1.29-1.29 0-.71-.58-1.29-1.29-1.29-.71 0-1.29.58-1.29 1.29 0 .71.58 1.29 1.29 1.29z" fill="#79B8FF"></path><path opacity=".75" d="M514.56 457.58c.71 0 1.29-.58 1.29-1.29 0-.71-.58-1.29-1.29-1.29-.71 0-1.29.58-1.29 1.29a1.3 1.3 0 001.29 1.29z" fill="#79B8FF"></path><path opacity=".75" d="M522.28 457.58a1.29 1.29 0 100-2.58 1.29 1.29 0 000 2.58z" fill="#79B8FF"></path><path opacity=".75" d="M530.001 457.58c.71 0 1.29-.58 1.29-1.29a1.3 1.3 0 00-1.29-1.29c-.71 0-1.29.58-1.29 1.29 0 .71.58 1.29 1.29 1.29z" fill="#79B8FF"></path><path opacity=".75" d="M537.71 457.58a1.29 1.29 0 10-.001-2.581 1.29 1.29 0 00.001 2.581z" fill="#79B8FF"></path><path opacity=".75" d="M500.42 464.03c0-.71-.58-1.29-1.29-1.29-.71 0-1.29.58-1.29 1.29 0 .71.58 1.29 1.29 1.29.71 0 1.29-.58 1.29-1.29z" fill="#79B8FF"></path><path opacity=".75" d="M508.131 464.03c0-.71-.58-1.29-1.29-1.29-.71 0-1.29.58-1.29 1.29 0 .71.58 1.29 1.29 1.29.72 0 1.29-.58 1.29-1.29z" fill="#79B8FF"></path><path opacity=".75" d="M515.85 464.03c0-.71-.58-1.29-1.29-1.29-.71 0-1.29.58-1.29 1.29 0 .71.58 1.29 1.29 1.29.71 0 1.29-.58 1.29-1.29z" fill="#79B8FF"></path><path opacity=".75" d="M523.57 464.03c0-.71-.58-1.29-1.29-1.29-.71 0-1.29.58-1.29 1.29 0 .71.58 1.29 1.29 1.29.71 0 1.29-.58 1.29-1.29z" fill="#79B8FF"></path><path opacity=".75" d="M530.001 462.74c-.71 0-1.29.58-1.29 1.29 0 .71.58 1.29 1.29 1.29.71 0 1.29-.58 1.29-1.29a1.3 1.3 0 00-1.29-1.29z" fill="#79B8FF"></path><path opacity=".75" d="M537.71 462.74c-.71 0-1.29.58-1.29 1.29 0 .71.58 1.29 1.29 1.29.71 0 1.29-.58 1.29-1.29 0-.71-.58-1.29-1.29-1.29z" fill="#79B8FF"></path><path opacity=".75" d="M499.13 473.06a1.29 1.29 0 10-.001-2.581 1.29 1.29 0 00.001 2.581z" fill="#79B8FF"></path><path opacity=".75" d="M508.131 471.77c0-.71-.58-1.29-1.29-1.29-.71 0-1.29.58-1.29 1.29 0 .71.58 1.29 1.29 1.29.72 0 1.29-.58 1.29-1.29z" fill="#79B8FF"></path><path opacity=".75" d="M515.85 471.77c0-.71-.58-1.29-1.29-1.29-.71 0-1.29.58-1.29 1.29 0 .71.58 1.29 1.29 1.29.71 0 1.29-.58 1.29-1.29z" fill="#79B8FF"></path><path opacity=".75" d="M522.28 473.06a1.29 1.29 0 100-2.58 1.29 1.29 0 000 2.58z" fill="#79B8FF"></path><path opacity=".75" d="M530.001 470.48c-.71 0-1.29.58-1.29 1.29 0 .71.58 1.29 1.29 1.29.71 0 1.29-.58 1.29-1.29 0-.71-.58-1.29-1.29-1.29z" fill="#79B8FF"></path><path opacity=".75" d="M537.71 473.06a1.29 1.29 0 10-.001-2.581 1.29 1.29 0 00.001 2.581z" fill="#79B8FF"></path><path opacity=".75" d="M500.42 479.51c0-.71-.58-1.29-1.29-1.29-.71 0-1.29.58-1.29 1.29 0 .71.58 1.29 1.29 1.29.71 0 1.29-.58 1.29-1.29z" fill="#79B8FF"></path><path opacity=".75" d="M508.131 479.51c0-.71-.58-1.29-1.29-1.29-.71 0-1.29.58-1.29 1.29 0 .71.58 1.29 1.29 1.29.72 0 1.29-.58 1.29-1.29z" fill="#79B8FF"></path><path opacity=".75" d="M514.56 478.22c-.71 0-1.29.58-1.29 1.29 0 .71.58 1.29 1.29 1.29.71 0 1.29-.58 1.29-1.29 0-.71-.58-1.29-1.29-1.29z" fill="#79B8FF"></path><path opacity=".75" d="M522.28 478.22c-.71 0-1.29.58-1.29 1.29 0 .71.58 1.29 1.29 1.29.71 0 1.29-.58 1.29-1.29 0-.71-.58-1.29-1.29-1.29z" fill="#79B8FF"></path><path opacity=".75" d="M530.001 478.22c-.71 0-1.29.58-1.29 1.29 0 .71.58 1.29 1.29 1.29.71 0 1.29-.58 1.29-1.29a1.3 1.3 0 00-1.29-1.29z" fill="#79B8FF"></path><path opacity=".75" d="M537.71 478.22c-.71 0-1.29.58-1.29 1.29 0 .71.58 1.29 1.29 1.29.71 0 1.29-.58 1.29-1.29 0-.71-.58-1.29-1.29-1.29z" fill="#79B8FF"></path><path opacity=".75" d="M499.13 488.54a1.29 1.29 0 10-.001-2.581 1.29 1.29 0 00.001 2.581z" fill="#79B8FF"></path><path opacity=".75" d="M506.851 485.96c-.71 0-1.29.58-1.29 1.29 0 .71.58 1.29 1.29 1.29.71 0 1.29-.58 1.29-1.29a1.3 1.3 0 00-1.29-1.29z" fill="#79B8FF"></path><path opacity=".75" d="M514.56 485.96c-.71 0-1.29.58-1.29 1.29 0 .71.58 1.29 1.29 1.29.71 0 1.29-.58 1.29-1.29 0-.71-.58-1.29-1.29-1.29z" fill="#79B8FF"></path><path opacity=".75" d="M522.28 488.54a1.29 1.29 0 100-2.58 1.29 1.29 0 000 2.58z" fill="#79B8FF"></path><path opacity=".75" d="M530.001 485.96c-.71 0-1.29.58-1.29 1.29 0 .71.58 1.29 1.29 1.29.71 0 1.29-.58 1.29-1.29a1.3 1.3 0 00-1.29-1.29z" fill="#79B8FF"></path><path opacity=".75" d="M537.71 488.54a1.29 1.29 0 10-.001-2.581 1.29 1.29 0 00.001 2.581z" fill="#79B8FF"></path><path opacity=".75" d="M499.13 496.28a1.29 1.29 0 100-2.58 1.29 1.29 0 000 2.58z" fill="#79B8FF"></path><path opacity=".75" d="M506.851 493.7c-.71 0-1.29.58-1.29 1.29 0 .71.58 1.29 1.29 1.29.71 0 1.29-.58 1.29-1.29a1.3 1.3 0 00-1.29-1.29z" fill="#79B8FF"></path><path opacity=".75" d="M514.56 493.7c-.71 0-1.29.58-1.29 1.29 0 .71.58 1.29 1.29 1.29.71 0 1.29-.58 1.29-1.29 0-.71-.58-1.29-1.29-1.29z" fill="#79B8FF"></path><path opacity=".75" d="M522.28 496.28a1.29 1.29 0 10.001-2.579 1.29 1.29 0 00-.001 2.579z" fill="#79B8FF"></path><path opacity=".75" d="M530.001 493.7c-.71 0-1.29.58-1.29 1.29 0 .71.58 1.29 1.29 1.29.71 0 1.29-.58 1.29-1.29a1.3 1.3 0 00-1.29-1.29z" fill="#79B8FF"></path><path opacity=".75" d="M537.71 496.28a1.29 1.29 0 100-2.58 1.29 1.29 0 000 2.58z" fill="#79B8FF"></path></g><g filter="url(#filter13_d)" class="actions-hero-subcard"><path opacity=".8" d="M785.026 564h365.944c5.54 0 10.03-4.317 10.03-9.636v-86.728c0-5.319-4.49-9.636-10.03-9.636H785.026c-5.534 0-10.026 4.317-10.026 9.636v86.728c0 5.319 4.492 9.636 10.026 9.636z" fill="#fff"></path><path opacity=".8" d="M785.026 564.5h365.944c5.8 0 10.53-4.522 10.53-10.136v-86.728c0-5.614-4.73-10.136-10.53-10.136H785.026c-5.792 0-10.526 4.522-10.526 10.136v86.728c0 5.614 4.734 10.136 10.526 10.136z" stroke="#1B1F23" stroke-opacity=".05"></path><path d="M1108 540c16.02 0 29-12.984 29-29s-12.98-29-29-29-29 12.984-29 29 12.98 29 29 29z" fill="#34D058"></path><path d="M1118.33 504l-14.66 14.667L1097 512" stroke="#fff" stroke-width="2" stroke-linecap="round" stroke-linejoin="round"></path><path opacity=".8" d="M1136.5 511c0 15.74-12.76 28.5-28.5 28.5s-28.5-12.76-28.5-28.5 12.76-28.5 28.5-28.5 28.5 12.76 28.5 28.5z" stroke="#1B1F23" stroke-opacity=".02"></path></g><g filter="url(#filter14_d)" class="actions-hero-starter"><mask id="mask4" mask-type="alpha" maskUnits="userSpaceOnUse" x="521" y="51" width="422" height="156"><path d="M943 51H521v156h422V51z" fill="#fff"></path><path fill-rule="evenodd" clip-rule="evenodd" d="M522 58a6 6 0 016-6h408a6 6 0 016 6v128a6 6 0 01-6 6H746c0 7.732-6.268 14-14 14s-14-6.268-14-14H528a6 6 0 01-6-6V58zm217 134a7 7 0 11-14 0 7 7 0 0114 0z" fill="#000"></path></mask><g mask="url(#mask4)"><path fill-rule="evenodd" clip-rule="evenodd" d="M522 58a6 6 0 016-6h408a6 6 0 016 6v128a6 6 0 01-6 6H746c0 7.732-6.268 14-14 14s-14-6.268-14-14H528a6 6 0 01-6-6V58zm217 134a7 7 0 11-14 0 7 7 0 0114 0z" fill="#fff"></path><path d="M746 192v-1h-1v1h1zm-28 0h1v-1h-1v1zM528 51a7 7 0 00-7 7h2a5 5 0 015-5v-2zm408 0H528v2h408v-2zm7 7a7 7 0 00-7-7v2a5 5 0 015 5h2zm0 128V58h-2v128h2zm-7 7a7 7 0 007-7h-2a5 5 0 01-5 5v2zm-190 0h190v-2H746v2zm-14 14c8.284 0 15-6.716 15-15h-2c0 7.18-5.82 13-13 13v2zm-15-15c0 8.284 6.716 15 15 15v-2c-7.18 0-13-5.82-13-13h-2zm-189 1h190v-2H528v2zm-7-7a7 7 0 007 7v-2a5 5 0 01-5-5h-2zm0-128v128h2V58h-2zm211 142a8 8 0 008-8h-2a6 6 0 01-6 6v2zm-8-8a8 8 0 008 8v-2a6 6 0 01-6-6h-2zm8-8a8 8 0 00-8 8h2a6 6 0 016-6v-2zm8 8a8 8 0 00-8-8v2a6 6 0 016 6h2z" fill="#1B1F23" fill-opacity=".05"></path></g></g><defs><filter id="filter0_d" x="490" y="203" width="525" height="1009" filterUnits="userSpaceOnUse" color-interpolation-filters="sRGB"><feFlood flood-opacity="0" result="BackgroundImageFix"></feFlood><feColorMatrix in="SourceAlpha" type="matrix" values="0 0 0 0 0 0 0 0 0 0 0 0 0 0 0 0 0 0 127 0"></feColorMatrix><feOffset dx="3" dy="3"></feOffset><feGaussianBlur stdDeviation="1.5"></feGaussianBlur><feColorMatrix type="matrix" values="0 0 0 0 0.105882 0 0 0 0 0.121569 0 0 0 0 0.137255 0 0 0 0.08 0"></feColorMatrix><feBlend mode="normal" in2="BackgroundImageFix" result="effect1_dropShadow"></feBlend><feBlend mode="normal" in="SourceGraphic" in2="effect1_dropShadow" result="shape"></feBlend></filter><filter id="filter1_d" x="281" y="1098" width="432" height="350" filterUnits="userSpaceOnUse" color-interpolation-filters="sRGB"><feFlood flood-opacity="0" result="BackgroundImageFix"></feFlood><feColorMatrix in="SourceAlpha" type="matrix" values="0 0 0 0 0 0 0 0 0 0 0 0 0 0 0 0 0 0 127 0"></feColorMatrix><feOffset dx="5" dy="5"></feOffset><feGaussianBlur stdDeviation="2.5"></feGaussianBlur><feColorMatrix type="matrix" values="0 0 0 0 0.105882 0 0 0 0 0.121569 0 0 0 0 0.137255 0 0 0 0.1 0"></feColorMatrix><feBlend mode="normal" in2="BackgroundImageFix" result="effect1_dropShadow"></feBlend><feBlend mode="normal" in="SourceGraphic" in2="effect1_dropShadow" result="shape"></feBlend></filter><filter id="filter2_i" x="620" y="1129" width="60.997" height="61" filterUnits="userSpaceOnUse" color-interpolation-filters="sRGB"><feFlood flood-opacity="0" result="BackgroundImageFix"></feFlood><feBlend mode="normal" in="SourceGraphic" in2="BackgroundImageFix" result="shape"></feBlend><feColorMatrix in="SourceAlpha" type="matrix" values="0 0 0 0 0 0 0 0 0 0 0 0 0 0 0 0 0 0 127 0" result="hardAlpha"></feColorMatrix><feOffset dx="3" dy="3"></feOffset><feGaussianBlur stdDeviation="2.5"></feGaussianBlur><feComposite in2="hardAlpha" operator="arithmetic" k2="-1" k3="1"></feComposite><feColorMatrix type="matrix" values="0 0 0 0 0 0 0 0 0 0 0 0 0 0 0 0 0 0 0.08 0"></feColorMatrix><feBlend mode="normal" in2="shape" result="effect1_innerShadow"></feBlend></filter><filter id="filter3_d" x="264" y="1262" width="118" height="112" filterUnits="userSpaceOnUse" color-interpolation-filters="sRGB"><feFlood flood-opacity="0" result="BackgroundImageFix"></feFlood><feColorMatrix in="SourceAlpha" type="matrix" values="0 0 0 0 0 0 0 0 0 0 0 0 0 0 0 0 0 0 127 0"></feColorMatrix><feOffset dx="20" dy="14"></feOffset><feGaussianBlur stdDeviation="4"></feGaussianBlur><feColorMatrix type="matrix" values="0 0 0 0 0.105882 0 0 0 0 0.121569 0 0 0 0 0.137255 0 0 0 0.08 0"></feColorMatrix><feBlend mode="normal" in2="BackgroundImageFix" result="effect1_dropShadow"></feBlend><feBlend mode="normal" in="SourceGraphic" in2="effect1_dropShadow" result="shape"></feBlend></filter><filter id="filter4_d" x="761" y="687" width="432" height="350" filterUnits="userSpaceOnUse" color-interpolation-filters="sRGB"><feFlood flood-opacity="0" result="BackgroundImageFix"></feFlood><feColorMatrix in="SourceAlpha" type="matrix" values="0 0 0 0 0 0 0 0 0 0 0 0 0 0 0 0 0 0 127 0"></feColorMatrix><feOffset dx="5" dy="5"></feOffset><feGaussianBlur stdDeviation="2.5"></feGaussianBlur><feColorMatrix type="matrix" values="0 0 0 0 0.105882 0 0 0 0 0.121569 0 0 0 0 0.137255 0 0 0 0.1 0"></feColorMatrix><feBlend mode="normal" in2="BackgroundImageFix" result="effect1_dropShadow"></feBlend><feBlend mode="normal" in="SourceGraphic" in2="effect1_dropShadow" result="shape"></feBlend></filter><filter id="filter5_i" x="1100" y="718" width="61" height="61" filterUnits="userSpaceOnUse" color-interpolation-filters="sRGB"><feFlood flood-opacity="0" result="BackgroundImageFix"></feFlood><feBlend mode="normal" in="SourceGraphic" in2="BackgroundImageFix" result="shape"></feBlend><feColorMatrix in="SourceAlpha" type="matrix" values="0 0 0 0 0 0 0 0 0 0 0 0 0 0 0 0 0 0 127 0" result="hardAlpha"></feColorMatrix><feOffset dx="3" dy="3"></feOffset><feGaussianBlur stdDeviation="2.5"></feGaussianBlur><feComposite in2="hardAlpha" operator="arithmetic" k2="-1" k3="1"></feComposite><feColorMatrix type="matrix" values="0 0 0 0 0 0 0 0 0 0 0 0 0 0 0 0 0 0 0.08 0"></feColorMatrix><feBlend mode="normal" in2="shape" result="effect1_innerShadow"></feBlend></filter><filter id="filter6_d" x="1121" y="847.95" width="118" height="112" filterUnits="userSpaceOnUse" color-interpolation-filters="sRGB"><feFlood flood-opacity="0" result="BackgroundImageFix"></feFlood><feColorMatrix in="SourceAlpha" type="matrix" values="0 0 0 0 0 0 0 0 0 0 0 0 0 0 0 0 0 0 127 0"></feColorMatrix><feOffset dx="20" dy="14"></feOffset><feGaussianBlur stdDeviation="4"></feGaussianBlur><feColorMatrix type="matrix" values="0 0 0 0 0.105882 0 0 0 0 0.121569 0 0 0 0 0.137255 0 0 0 0.08 0"></feColorMatrix><feBlend mode="normal" in2="BackgroundImageFix" result="effect1_dropShadow"></feBlend><feBlend mode="normal" in="SourceGraphic" in2="effect1_dropShadow" result="shape"></feBlend></filter><filter id="filter7_d" x="281" y="687" width="432" height="350" filterUnits="userSpaceOnUse" color-interpolation-filters="sRGB"><feFlood flood-opacity="0" result="BackgroundImageFix"></feFlood><feColorMatrix in="SourceAlpha" type="matrix" values="0 0 0 0 0 0 0 0 0 0 0 0 0 0 0 0 0 0 127 0"></feColorMatrix><feOffset dx="5" dy="5"></feOffset><feGaussianBlur stdDeviation="2.5"></feGaussianBlur><feColorMatrix type="matrix" values="0 0 0 0 0.105882 0 0 0 0 0.121569 0 0 0 0 0.137255 0 0 0 0.1 0"></feColorMatrix><feBlend mode="normal" in2="BackgroundImageFix" result="effect1_dropShadow"></feBlend><feBlend mode="normal" in="SourceGraphic" in2="effect1_dropShadow" result="shape"></feBlend></filter><filter id="filter8_i" x="620" y="718" width="60.997" height="61" filterUnits="userSpaceOnUse" color-interpolation-filters="sRGB"><feFlood flood-opacity="0" result="BackgroundImageFix"></feFlood><feBlend mode="normal" in="SourceGraphic" in2="BackgroundImageFix" result="shape"></feBlend><feColorMatrix in="SourceAlpha" type="matrix" values="0 0 0 0 0 0 0 0 0 0 0 0 0 0 0 0 0 0 127 0" result="hardAlpha"></feColorMatrix><feOffset dx="3" dy="3"></feOffset><feGaussianBlur stdDeviation="2.5"></feGaussianBlur><feComposite in2="hardAlpha" operator="arithmetic" k2="-1" k3="1"></feComposite><feColorMatrix type="matrix" values="0 0 0 0 0 0 0 0 0 0 0 0 0 0 0 0 0 0 0.08 0"></feColorMatrix><feBlend mode="normal" in2="shape" result="effect1_innerShadow"></feBlend></filter><filter id="filter9_d" x="41" y="832" width="433" height="147" filterUnits="userSpaceOnUse" color-interpolation-filters="sRGB"><feFlood flood-opacity="0" result="BackgroundImageFix"></feFlood><feColorMatrix in="SourceAlpha" type="matrix" values="0 0 0 0 0 0 0 0 0 0 0 0 0 0 0 0 0 0 127 0"></feColorMatrix><feOffset dx="30" dy="24"></feOffset><feGaussianBlur stdDeviation="7.5"></feGaussianBlur><feColorMatrix type="matrix" values="0 0 0 0 0.105882 0 0 0 0 0.121569 0 0 0 0 0.137255 0 0 0 0.08 0"></feColorMatrix><feBlend mode="normal" in2="BackgroundImageFix" result="effect1_dropShadow"></feBlend><feBlend mode="normal" in="SourceGraphic" in2="effect1_dropShadow" result="shape"></feBlend></filter><filter id="filter10_d" x="521" y="277" width="432" height="350" filterUnits="userSpaceOnUse" color-interpolation-filters="sRGB"><feFlood flood-opacity="0" result="BackgroundImageFix"></feFlood><feColorMatrix in="SourceAlpha" type="matrix" values="0 0 0 0 0 0 0 0 0 0 0 0 0 0 0 0 0 0 127 0"></feColorMatrix><feOffset dx="5" dy="5"></feOffset><feGaussianBlur stdDeviation="2.5"></feGaussianBlur><feColorMatrix type="matrix" values="0 0 0 0 0.105882 0 0 0 0 0.121569 0 0 0 0 0.137255 0 0 0 0.1 0"></feColorMatrix><feBlend mode="normal" in2="BackgroundImageFix" result="effect1_dropShadow"></feBlend><feBlend mode="normal" in="SourceGraphic" in2="effect1_dropShadow" result="shape"></feBlend></filter><filter id="filter11_i" x="860" y="308" width="60.997" height="61" filterUnits="userSpaceOnUse" color-interpolation-filters="sRGB"><feFlood flood-opacity="0" result="BackgroundImageFix"></feFlood><feBlend mode="normal" in="SourceGraphic" in2="BackgroundImageFix" result="shape"></feBlend><feColorMatrix in="SourceAlpha" type="matrix" values="0 0 0 0 0 0 0 0 0 0 0 0 0 0 0 0 0 0 127 0" result="hardAlpha"></feColorMatrix><feOffset dx="3" dy="3"></feOffset><feGaussianBlur stdDeviation="2.5"></feGaussianBlur><feComposite in2="hardAlpha" operator="arithmetic" k2="-1" k3="1"></feComposite><feColorMatrix type="matrix" values="0 0 0 0 0 0 0 0 0 0 0 0 0 0 0 0 0 0 0.08 0"></feColorMatrix><feBlend mode="normal" in2="shape" result="effect1_innerShadow"></feBlend></filter><filter id="filter12_d" x="480" y="473.95" width="118" height="112" filterUnits="userSpaceOnUse" color-interpolation-filters="sRGB"><feFlood flood-opacity="0" result="BackgroundImageFix"></feFlood><feColorMatrix in="SourceAlpha" type="matrix" values="0 0 0 0 0 0 0 0 0 0 0 0 0 0 0 0 0 0 127 0"></feColorMatrix><feOffset dx="20" dy="14"></feOffset><feGaussianBlur stdDeviation="4"></feGaussianBlur><feColorMatrix type="matrix" values="0 0 0 0 0.105882 0 0 0 0 0.121569 0 0 0 0 0.137255 0 0 0 0.08 0"></feColorMatrix><feBlend mode="normal" in2="BackgroundImageFix" result="effect1_dropShadow"></feBlend><feBlend mode="normal" in="SourceGraphic" in2="effect1_dropShadow" result="shape"></feBlend></filter><filter id="filter13_d" x="774" y="457" width="433" height="147" filterUnits="userSpaceOnUse" color-interpolation-filters="sRGB"><feFlood flood-opacity="0" result="BackgroundImageFix"></feFlood><feColorMatrix in="SourceAlpha" type="matrix" values="0 0 0 0 0 0 0 0 0 0 0 0 0 0 0 0 0 0 127 0"></feColorMatrix><feOffset dx="30" dy="24"></feOffset><feGaussianBlur stdDeviation="7.5"></feGaussianBlur><feColorMatrix type="matrix" values="0 0 0 0 0.105882 0 0 0 0 0.121569 0 0 0 0 0.137255 0 0 0 0.08 0"></feColorMatrix><feBlend mode="normal" in2="BackgroundImageFix" result="effect1_dropShadow"></feBlend><feBlend mode="normal" in="SourceGraphic" in2="effect1_dropShadow" result="shape"></feBlend></filter><filter id="filter14_d" x="521" y="51" width="432" height="166" filterUnits="userSpaceOnUse" color-interpolation-filters="sRGB"><feFlood flood-opacity="0" result="BackgroundImageFix"></feFlood><feColorMatrix in="SourceAlpha" type="matrix" values="0 0 0 0 0 0 0 0 0 0 0 0 0 0 0 0 0 0 127 0"></feColorMatrix><feOffset dx="5" dy="5"></feOffset><feGaussianBlur stdDeviation="2.5"></feGaussianBlur><feColorMatrix type="matrix" values="0 0 0 0 0.105882 0 0 0 0 0.121569 0 0 0 0 0.137255 0 0 0 0.1 0"></feColorMatrix><feBlend mode="normal" in2="BackgroundImageFix" result="effect1_dropShadow"></feBlend><feBlend mode="normal" in="SourceGraphic" in2="effect1_dropShadow" result="shape"></feBlend></filter></defs></svg>